<svg xmlns="http://www.w3.org/2000/svg" xmlns:xlink="http://www.w3.org/1999/xlink" version="1.1" id="Layer_1" x="0px" y="0px" viewBox="0 0 695.6 643" style="enable-background:new 0 0 695.6 643;" xml:space="preserve">
<style type="text/css">
	.st0{fill:#C5CFE4;}
	.st1{fill:none;stroke:#254898;stroke-miterlimit:10;}
	.st2{fill:#254898;stroke:#254898;stroke-width:0.5;stroke-miterlimit:10;}
	.st3{fill:#254898;stroke:#254898;stroke-miterlimit:10;}
	.st4{fill:#2BD67B;}
	.st5{fill:#FFFFFF;}
	.st6{fill:#2E407D;}
	.st7{fill:#254898;}
	.st8{opacity:0.42;fill:url(#SVGID_1_);enable-background:new    ;}
	.st9{fill:#254898;stroke:#254898;stroke-width:2;stroke-miterlimit:10;}
	.st10{fill:#4070F4;}
	.st11{fill:#DFE6F2;}
	.st12{fill:none;}
	.st13{fill:none;stroke:#254898;stroke-linejoin:round;stroke-dasharray:4;}
	.st14{opacity:0.42;fill:url(#SVGID_2_);enable-background:new    ;}
	.st15{fill:#F7E36D;}
	.st16{fill:none;stroke:#0C152E;stroke-miterlimit:10;}
	.st17{fill:none;stroke:#0C152E;stroke-linecap:round;stroke-miterlimit:10;}
	.st18{fill:#0C152E;}
	.st19{fill:#FFFFFF;stroke:#254898;stroke-miterlimit:10;}
	.st20{fill:#2156CC;}
	.st21{opacity:0.42;fill:url(#SVGID_3_);enable-background:new    ;}
	.st22{fill:#8A8CA2;}
	.st23{fill:#FF4557;}
	.st24{fill:#FFD0D1;}
	.st25{fill:#F7F9FB;}
	.st26{fill:#FFFFFF;stroke:#254898;stroke-width:0.4877;stroke-miterlimit:10;}
	.st27{fill:#2BD67B;stroke:#2BD67B;stroke-width:0.5;stroke-linecap:round;stroke-linejoin:round;stroke-miterlimit:10;}
	.st28{fill:url(#SVGID_4_);}
	.st29{fill:#254898;stroke:#254898;stroke-width:0.5;stroke-linecap:round;stroke-linejoin:round;stroke-miterlimit:10;}
	.st30{fill:#DFE6F2;stroke:#0C152E;stroke-width:0.5;stroke-linecap:round;stroke-linejoin:round;stroke-miterlimit:10;}
	.st31{fill:none;stroke:#0C152E;stroke-width:0.5;stroke-linecap:round;stroke-linejoin:round;stroke-miterlimit:10;}
	.st32{fill:#0C152E;stroke:#0C152E;stroke-width:0.5;stroke-linecap:round;stroke-linejoin:round;stroke-miterlimit:10;}
	.st33{fill:#FFFFFF;stroke:#0C152E;stroke-width:0.5;stroke-linecap:round;stroke-linejoin:round;stroke-miterlimit:10;}
	.st34{fill:#C5CFE4;stroke:#C5CFE4;stroke-width:0.5;stroke-linecap:round;stroke-linejoin:round;stroke-miterlimit:10;}
	.st35{fill:none;stroke:#C5CFE4;stroke-width:0.5;stroke-linecap:round;stroke-linejoin:round;stroke-miterlimit:10;}
	.st36{fill:#FFFFFF;stroke:#FFFFFF;stroke-width:0.5;stroke-linecap:round;stroke-linejoin:round;stroke-miterlimit:10;}
	.st37{fill:none;stroke:#FFFFFF;stroke-width:0.5;stroke-linecap:round;stroke-linejoin:round;stroke-miterlimit:10;}
	.st38{fill:none;stroke:#DFE6F2;stroke-width:45;stroke-linecap:round;stroke-linejoin:round;stroke-miterlimit:10;}
	.st39{fill:url(#SVGID_5_);}
	.st40{fill:#8A8CA2;stroke:#0C152E;stroke-width:0.5;stroke-linecap:round;stroke-linejoin:round;stroke-miterlimit:10;}
	.st41{fill:url(#SVGID_6_);}
	.st42{fill:#254898;stroke:#254898;stroke-width:0.75;stroke-linecap:round;stroke-linejoin:round;stroke-miterlimit:10;}
	.st43{fill:#DFE6F2;stroke:#0C152E;stroke-width:0.75;stroke-linecap:round;stroke-linejoin:round;stroke-miterlimit:10;}
	.st44{fill:none;stroke:#0C152E;stroke-width:0.75;stroke-linecap:round;stroke-linejoin:round;stroke-miterlimit:10;}
	.st45{fill:#0C152E;stroke:#0C152E;stroke-width:0.75;stroke-linecap:round;stroke-linejoin:round;stroke-miterlimit:10;}
	.st46{fill:#FFFFFF;stroke:#0C152E;stroke-width:0.75;stroke-linecap:round;stroke-linejoin:round;stroke-miterlimit:10;}
	.st47{fill:#FFFFFF;stroke:#FFFFFF;stroke-width:0.75;stroke-linecap:round;stroke-linejoin:round;stroke-miterlimit:10;}
	.st48{fill:#C5CFE4;stroke:#C5CFE4;stroke-width:0.75;stroke-linecap:round;stroke-linejoin:round;stroke-miterlimit:10;}
	.st49{fill:#2BD67B;stroke:#2BD67B;stroke-width:0.75;stroke-linecap:round;stroke-linejoin:round;stroke-miterlimit:10;}
	.st50{fill:url(#SVGID_7_);}
	.st51{fill:#8A8CA2;stroke:#0C152E;stroke-width:0.75;stroke-linecap:round;stroke-linejoin:round;stroke-miterlimit:10;}
</style>
<text transform="matrix(1 0 0 1 1154.7197 -2398.5884)"><tspan x="0" y="0" style="font-family:'MyriadPro-Regular'; font-size:12px;">https://lisk.io/community currently has a module about the Bug Bounty Program. The image needs to be updated to fit more in the design of the page.</tspan><tspan x="0" y="28.8" style="font-family:'MyriadPro-Regular'; font-size:12px;">Please keep in mind that we want to make the website a little less "boxy" so let's start this effort by creating images that are "not anchored" to a baseline but has elements that "flow" more.</tspan></text>
<path class="st0" d="M369.1-2901.3c-0.4-7.7,1-15.3,4-22.3l-36.9,5.9c-1.2,0.2-2.3,0.9-3,2c-1.3,2-2.2,4.1-2.9,6.4  c1.9-1,3.9-1.7,6-2C347.3-2913,369.1-2901.3,369.1-2901.3z"/>
<path class="st1" d="M639.9-2631.8c32.2,0,58.4-26.1,58.4-58.4l0,0c0-32.2-26.1-58.4-58.4-58.4H515.5c-2.6,0-5.1,0.2-7.7,0.5"/>
<path class="st1" d="M462.6-2714.9c-3.6,7.7-5.5,16.2-5.5,24.8l0,0c0,24.8,15.7,46.9,39.1,55.1"/>
<path class="st2" d="M656.6-2748.5h-16.7c32.2,0,58.4,26.1,58.4,58.4l0,0c0,32.2-26.1,58.4-58.4,58.4h28.9  c28.8,0,52.2-23.4,52.2-52.2l0,0C721.1-2719.6,692.2-2748.5,656.6-2748.5z"/>
<rect x="522.8" y="-2760.6" class="st1" width="124.7" height="12.1"/>
<polygon class="st1" points="654.6,-2760.2 600.4,-2760.4 643.7,-2803.7 698,-2803.7 "/>
<polygon class="st3" points="600.4,-2760.2 588.6,-2760.4 631.8,-2803.7 643.8,-2803.7 "/>
<polygon class="st4" points="947.4,-2905.3 895.6,-2905.3 835.8,-2845.6 886.7,-2844.7 "/>
<line class="st1" x1="158.1" y1="-2729.5" x2="22.5" y2="-2729.5"/>
<line class="st1" x1="16.5" y1="-2631.7" x2="758.9" y2="-2631.7"/>
<path class="st1" d="M384.2-2878.5l-4.1,103.1c-1.1,7.4-1.5,14.9-1.4,22.4l2.3,106.8l-7,13.8h65.5l-0.8-120l2.5-7.3"/>
<circle class="st5" cx="403.9" cy="-2984.9" r="20.3"/>
<path class="st1" d="M466.1-2889.5l31.5,125.2l72.5,131.9h-73.9l0.8-11.3L445-2751.6c-6-11.6-31.3-91.8-31.3-91.8"/>
<polygon class="st6" points="436.5,-2917.1 416.6,-2881.9 444.5,-2921.4 "/>
<path class="st7" d="M384.1-2989.7c0,0.2-0.1,0.5-0.1,0.7l37.3,14.7c1.2-1.9,2-4.1,2.5-6.3L384.1-2989.7z"/>
<polyline class="st7" points="437.1,-2886.5 480.4,-2763.5 563.2,-2632.4 570.6,-2632.4 498.1,-2764.2 466,-2889.5 "/>
<linearGradient id="SVGID_1_" gradientUnits="userSpaceOnUse" x1="-836.6667" y1="-2006.1949" x2="-836.9067" y2="-2041.6449" gradientTransform="matrix(-7.000000e-02 -0.91 -1.61 0.12 -3006.7966 -3471.49)">
	<stop offset="0" style="stop-color:#0A1630;stop-opacity:0"/>
	<stop offset="0.11" style="stop-color:#152959;stop-opacity:0.1"/>
	<stop offset="0.28" style="stop-color:#254290;stop-opacity:0.25"/>
	<stop offset="0.45" style="stop-color:#3156BC;stop-opacity:0.36"/>
	<stop offset="0.63" style="stop-color:#3965DB;stop-opacity:0.44"/>
	<stop offset="0.81" style="stop-color:#3E6DEE;stop-opacity:0.48"/>
	<stop offset="1" style="stop-color:#4070F4;stop-opacity:0.5"/>
</linearGradient>
<polygon class="st8" points="337.9,-2974.8 344.9,-2935.4 270.4,-2934.4 269.1,-2956.3 "/>
<polygon class="st9" points="439.5,-2751.5 439.6,-2632.3 433.4,-2632.3 438.8,-2752.4 441.7,-2759.6 "/>
<path class="st5" d="M345.9-2939.9l-7-34c-9.4,1.9-15.4,11.1-13.5,20.4c0,0,0,0,0,0.1l0,0C327.3-2944,336.5-2938,345.9-2939.9  C345.8-2939.9,345.9-2939.9,345.9-2939.9z"/>
<path class="st10" d="M325-2953.3c-2-9.6,4.2-19,13.8-21l0.4-0.1l7.2,34.8l-0.4,0.1c-8.3,1.7-16.6-2.7-19.9-10.4  C325.6-2951,325.2-2952.1,325-2953.3z M338.5-2973.3c-9.1,2.1-14.7,11.2-12.6,20.3c1,4.2,3.5,7.8,7.1,10.2c3.6,2.4,8,3.3,12.3,2.5  L338.5-2973.3z"/>
<rect x="329.9" y="-2975.1" transform="matrix(0.9794 -0.2021 0.2021 0.9794 604.0801 6.9949)" class="st7" width="12.8" height="41"/>
<path class="st10" d="M325.4-2973.7l13.4-2.8l8.5,41l-13.4,2.8L325.4-2973.7z M338.1-2975.5l-11.7,2.4l8.1,39.2l11.7-2.4  L338.1-2975.5z"/>
<rect x="342.3" y="-2935.2" transform="matrix(0.9794 -0.2021 0.2021 0.9794 594.6545 9.9642)" class="st7" width="7.7" height="56.3"/>
<path class="st10" d="M336.1-2934.1l8.4-1.7l11.6,56l-8.4,1.7L336.1-2934.1z M343.9-2934.8l-6.7,1.4l11.2,54.3l6.7-1.4L343.9-2934.8  z"/>
<path class="st4" d="M408.9-3008.4c-12.8-2.9-25.5,5-28.4,17.8c0,0,0,0,0,0l46.2,10.6C429.6-2992.7,421.6-3005.5,408.9-3008.4z"/>
<path class="st11" d="M404.1-2850.1c-13.5,0-28.9-8.2-45.1-16.9c-6.4-3.4-16-8.5-19.7-9.6c-9.7,0.3-17.7-7.3-18.1-16.9  c-0.3-8.9,6.2-16.6,15.1-17.9c11-1.6,22.9,4.8,39.2,13.6c7.1,3.8,19.6,10.5,26,12.3c3.9-5.2,8.9-18.7,11.5-25.6  c4.3-11.4,7.7-20.4,12.9-26.2c6.4-7.3,17.4-7.9,24.7-1.6s7.9,17.4,1.6,24.7c-1.5,2.3-4.5,10.2-6.4,15.4  C437.6-2877.1,427.4-2850.1,404.1-2850.1z M452-2913.9"/>
<path class="st10" d="M445.8-2898.9c-1.4,3.8-2.9,7.7-4.5,11.6l24.7-2.2l-6.1-26.5l-7.9,2.1C450.5-2911.2,447.7-2903.9,445.8-2898.9  z"/>
<path class="st10" d="M401.5-2885.6c2.6-3.5,5.7-10.7,8.3-17.2l-29.1,7.7C380.7-2895.1,395.1-2887.2,401.5-2885.6z"/>
<path class="st7" d="M452-2913.9c-1.5,2.6-4.3,10-6.2,15c-4.5,12.1-9.7,25.8-17.4,35.6l0,0c8.7,0,32-53.2,32-53.2L452-2913.9z"/>
<path class="st10" d="M404.7-2951.8c-22.6,6-37.4,27.9-36.1,50.3l12.1,6.4l83-21.9C456.9-2942.8,430.5-2958.6,404.7-2951.8z"/>
<ellipse transform="matrix(0.975 -0.2222 0.2222 0.975 665.4945 16.733)" class="st7" cx="407.1" cy="-2948.8" rx="14.6" ry="3.4"/>
<path class="st1" d="M394.6-2946.8c-2.1,0.3-20.5,22.2-12.5,51.7"/>
<path class="st12" d="M401.5-2885.6c1.9-2.6,4.1-7.2,6.2-12l-19.6,6.3C392.4-2889,396.9-2887.1,401.5-2885.6z"/>
<path class="st12" d="M409.4-2901.7l-1.7,4C408.3-2899,408.8-2900.3,409.4-2901.7z"/>
<path class="st7" d="M407.7-2897.6L407.7-2897.6l1.7-4l0.4-1.1l-6.7,1.7l-22.4,5.9c0,0,2.7,1.5,7.3,3.8L407.7-2897.6z"/>
<path class="st7" d="M407.7-2897.6"/>
<path class="st7" d="M409.4-2901.7L409.4-2901.7L409.4-2901.7z"/>
<path class="st1" d="M570.2-2920.2v-5.3c0-1.1,0.9-2,2-2H653"/>
<path class="st1" d="M549.9-2852.3h-33.9c-1.1,0-2,0.9-2,2l0.6,101.7"/>
<path class="st1" d="M378.8-2759.6h-38.1c-1.1,0-2-0.9-2-2v-56c0-1.1,0.9-2,2-2h41.2"/>
<path class="st1" d="M698.9-2911.8v11.3c0,1.1,0.9,1.9,1.9,1.9H757c1.1,0,1.9-0.9,1.9-1.9v-56.2c0-1.1-0.9-1.9-1.9-1.9h-56.2  c-1.1,0-1.9,0.9-1.9,1.9v11.4"/>
<path class="st1" d="M98.5-3029l-71.8-0.6c-1.1,0-2,0.9-2,2l-2.1,298.2"/>
<path class="st1" d="M22.5-2886.5h204.3c1.1,0,2-0.9,2-2v-18.4"/>
<path class="st1" d="M650.6-3029.7h-78.1c-1.1,0-2,0.9-2,2l-0.4,173.5c0,1.1-0.9,2-2,2h-18.9"/>
<path class="st13" d="M150.9-2740.3H67.7"/>
<line class="st1" x1="666.5" y1="-2925.5" x2="693.7" y2="-2925.5"/>
<line class="st1" x1="678.6" y1="-2930.2" x2="705.7" y2="-2930.2"/>
<line class="st1" x1="666.5" y1="-3026.5" x2="693.7" y2="-3026.5"/>
<line class="st1" x1="678.6" y1="-3031.2" x2="705.7" y2="-3031.2"/>
<path class="st1" d="M698.9-3012.8v11.1c0,1.1,0.9,2,2,2h56c1.1,0,2-0.9,2-2v-56c0-1.1-0.9-2-2-2h-56c-1.1,0-2,0.9-2,2v11.4"/>
<path class="st1" d="M1899.6-2706.4c32.2,0,58.4-26.1,58.4-58.4l0,0c0-32.2-26.1-58.4-58.4-58.4h-124.5c-2.6,0-5.1,0.2-7.7,0.5"/>
<path class="st1" d="M1722.3-2789.5c-3.6,7.7-5.5,16.2-5.5,24.8l0,0c0,24.8,15.7,46.9,39.1,55.1"/>
<path class="st2" d="M1916.3-2823.1h-16.7c32.2,0,58.4,26.1,58.4,58.4l0,0c0,32.2-26.1,58.4-58.4,58.4h28.9  c28.8,0,52.2-23.4,52.2-52.2l0,0C1980.8-2794.2,1951.9-2823.1,1916.3-2823.1z"/>
<rect x="1782.5" y="-2835.2" class="st1" width="124.7" height="12.1"/>
<polygon class="st1" points="1914.4,-2834.8 1860.1,-2835 1903.4,-2878.3 1957.7,-2878.2 "/>
<polygon class="st3" points="1860.1,-2834.8 1848.3,-2835 1891.6,-2878.3 1903.5,-2878.2 "/>
<path class="st1" d="M1447.8-3052.6h85.1c2.2,0,4,1.8,4,4v50.6c0,2.2-1.8,4-4,4h-85.1c-2.2,0-4-1.8-4-4v-50.6  C1443.8-3050.8,1445.6-3052.6,1447.8-3052.6z"/>
<polygon class="st4" points="1573.5,-2766.9 1521.8,-2766.9 1462,-2707.1 1512.9,-2706.3 "/>
<polygon class="st10" points="1356,-2929.4 1385.7,-2929.4 1420,-2895.2 1390.8,-2894.7 "/>
<line class="st1" x1="1417.8" y1="-2804.1" x2="1282.3" y2="-2804"/>
<line class="st1" x1="1276.2" y1="-2706.3" x2="2018.6" y2="-2706.3"/>
<polygon class="st9" points="1699.2,-2826.1 1699.3,-2706.9 1693.1,-2706.9 1698.5,-2827 1701.4,-2834.1 "/>
<path class="st1" d="M1829.9-2994.8v-5.3c0-1.1,0.9-2,2-2h80.8"/>
<path class="st1" d="M1809.6-2926.9h-33.9c-1.1,0-2,0.9-2,2l0.6,101.7"/>
<g>
	<path class="st0" d="M1628.8-2975.9c-0.4-7.7,1-15.3,4-22.4l-36.9,5.9c-1.2,0.2-2.3,0.9-3,2c-1.3,2-2.2,4.1-2.9,6.4   c1.9-1,3.9-1.7,6-2C1607-2987.5,1628.8-2975.9,1628.8-2975.9z"/>
	<path class="st1" d="M1643.9-2953l-4.1,103.1c-1.1,7.4-1.5,14.9-1.4,22.4l2.3,106.8l-7,13.8h65.5l-0.8-120l2.5-7.3"/>
	<circle class="st5" cx="1663.6" cy="-3059.4" r="20.3"/>
	<path class="st1" d="M1725.8-2964l31.4,125.2l72.5,131.9h-73.9l0.8-11.3l-51.9-107.9c-6-11.6-31.3-91.8-31.3-91.8"/>
	<polygon class="st6" points="1696.2,-2991.7 1676.3,-2956.5 1704.2,-2996  "/>
	<path class="st7" d="M1643.8-3064.3c0,0.2-0.1,0.5-0.1,0.7l37.3,14.7c1.2-1.9,2-4.1,2.5-6.3L1643.8-3064.3z"/>
	<polyline class="st7" points="1696.8,-2961.1 1740.1,-2838.1 1823,-2707 1830.3,-2707 1757.8,-2838.8 1725.7,-2964  "/>
	
		<linearGradient id="SVGID_2_" gradientUnits="userSpaceOnUse" x1="-857.7821" y1="-2787.7102" x2="-858.0221" y2="-2823.1602" gradientTransform="matrix(-7.000000e-02 -0.91 -1.61 0.12 -3006.7966 -3471.49)">
		<stop offset="0" style="stop-color:#0A1630;stop-opacity:0"/>
		<stop offset="0.11" style="stop-color:#152959;stop-opacity:0.1"/>
		<stop offset="0.28" style="stop-color:#254290;stop-opacity:0.25"/>
		<stop offset="0.45" style="stop-color:#3156BC;stop-opacity:0.36"/>
		<stop offset="0.63" style="stop-color:#3965DB;stop-opacity:0.44"/>
		<stop offset="0.81" style="stop-color:#3E6DEE;stop-opacity:0.48"/>
		<stop offset="1" style="stop-color:#4070F4;stop-opacity:0.5"/>
	</linearGradient>
	<polygon class="st14" points="1597.6,-3049.4 1604.6,-3009.9 1530.1,-3008.9 1528.8,-3030.9  "/>
	<path class="st5" d="M1605.6-3014.5l-7-34c-9.4,1.9-15.4,11.1-13.5,20.4c0,0,0,0,0,0.1l0,0   C1587-3018.6,1596.2-3012.5,1605.6-3014.5C1605.6-3014.5,1605.6-3014.5,1605.6-3014.5z"/>
	<path class="st10" d="M1584.7-3027.9c-2-9.6,4.2-19,13.8-21l0.4-0.1l7.2,34.8l-0.4,0.1c-8.3,1.7-16.6-2.7-19.9-10.4   C1585.3-3025.6,1584.9-3026.7,1584.7-3027.9z M1598.2-3047.9c-9.1,2.1-14.7,11.2-12.6,20.3c1,4.2,3.5,7.8,7.1,10.2   c3.6,2.4,8,3.3,12.3,2.5L1598.2-3047.9z"/>
	
		<rect x="1589.6" y="-3049.7" transform="matrix(0.9794 -0.2021 0.2021 0.9794 645.1457 260.0497)" class="st7" width="12.8" height="41"/>
	<path class="st10" d="M1585.1-3048.3l13.4-2.8l8.4,41l-13.4,2.8L1585.1-3048.3z M1597.8-3050l-11.7,2.4l8.1,39.2l11.7-2.4   L1597.8-3050z"/>
	
		<rect x="1602" y="-3009.7" transform="matrix(0.9794 -0.2021 0.2021 0.9794 635.7201 263.0191)" class="st7" width="7.7" height="56.3"/>
	<path class="st10" d="M1595.8-3008.7l8.4-1.7l11.6,56l-8.4,1.7L1595.8-3008.7z M1603.6-3009.4l-6.7,1.4l11.2,54.3l6.7-1.4   L1603.6-3009.4z"/>
	<path class="st4" d="M1668.6-3083c-12.8-2.9-25.5,5-28.4,17.8c0,0,0,0,0,0l46.2,10.6C1689.3-3067.3,1681.3-3080,1668.6-3083z"/>
	<path class="st11" d="M1663.8-2924.7c-13.5,0-28.9-8.2-45.1-16.9c-6.4-3.4-16-8.5-19.7-9.6c-9.7,0.3-17.7-7.3-18.1-16.9   c-0.3-8.9,6.2-16.6,15.1-17.9c11-1.6,22.9,4.8,39.2,13.6c7.1,3.8,19.6,10.5,26,12.3c3.9-5.2,8.9-18.7,11.5-25.6   c4.3-11.4,7.7-20.4,12.9-26.2c6.4-7.3,17.4-7.9,24.7-1.6c7.3,6.4,7.9,17.4,1.6,24.7c-1.5,2.3-4.4,10.2-6.4,15.4   C1697.3-2951.7,1687.2-2924.7,1663.8-2924.7z M1711.7-2988.5"/>
	<path class="st10" d="M1705.5-2973.4c-1.4,3.8-2.9,7.7-4.5,11.6l24.7-2.2l-6.1-26.5l-7.9,2.1   C1710.2-2985.8,1707.4-2978.4,1705.5-2973.4z"/>
	<path class="st10" d="M1661.2-2960.1c2.6-3.5,5.7-10.7,8.3-17.2l-29.1,7.7C1640.4-2969.6,1654.8-2961.7,1661.2-2960.1z"/>
	<path class="st7" d="M1711.7-2988.5c-1.5,2.6-4.3,10-6.2,15c-4.5,12.1-9.7,25.8-17.4,35.6l0,0c8.7,0,32-53.2,32-53.2L1711.7-2988.5   z"/>
	<path class="st10" d="M1664.4-3026.4c-22.6,6-37.3,27.8-36.1,50.3l12.1,6.4l83-21.9C1716.7-3017.4,1690.2-3033.2,1664.4-3026.4z"/>
	
		<ellipse transform="matrix(0.975 -0.2222 0.2222 0.975 713.5654 294.8145)" class="st7" cx="1666.8" cy="-3023.4" rx="14.6" ry="3.4"/>
	<path class="st1" d="M1654.3-3021.4c-2.1,0.3-20.5,22.2-12.5,51.7"/>
	<path class="st12" d="M1661.2-2960.1c1.9-2.6,4.1-7.2,6.2-12.1l-19.6,6.3C1652.1-2963.6,1656.6-2961.7,1661.2-2960.1z"/>
	<path class="st12" d="M1669.1-2976.2l-1.7,4C1668-2973.5,1668.5-2974.9,1669.1-2976.2z"/>
	<path class="st7" d="M1667.4-2972.2L1667.4-2972.2l1.7-4l0.4-1.1l-6.7,1.7l-22.4,5.9c0,0,2.7,1.5,7.3,3.8L1667.4-2972.2z"/>
	<path class="st7" d="M1667.4-2972.2"/>
	<path class="st7" d="M1669.1-2976.3L1669.1-2976.3L1669.1-2976.3z"/>
	<path class="st1" d="M1638.5-2834.1h-38.1c-1.1,0-2-0.9-2-2v-56c0-1.1,0.9-2,2-2h41.2"/>
</g>
<path class="st0" d="M2400.8-3396.1c2.1,0.3,4.1,1,6,2c-0.6-2.3-1.6-4.4-2.8-6.4c-0.7-1.1-1.8-1.8-3-2l-36.9-5.9  c3,7.1,4.4,14.7,4,22.4C2368.1-3386,2389.9-3397.7,2400.8-3396.1z"/>
<path class="st1" d="M2295.8-3244.3l2.5,7.3l-0.8,120h65.5l-7-13.8l2.3-106.8c0.2-7.5-0.3-15-1.4-22.4l-4.1-103.1"/>
<ellipse transform="matrix(0.9951 -9.853754e-02 9.853754e-02 0.9951 353.2391 213.0286)" class="st11" cx="2333.3" cy="-3469.6" rx="20.3" ry="20.3"/>
<path class="st1" d="M2323.5-3328.1c0,0-25.3,80.2-31.3,91.8l-51.9,108l0.8,11.3h-73.9l72.5-131.9l31.4-125.2"/>
<polygon class="st6" points="2292.6,-3406.2 2320.5,-3366.6 2300.6,-3401.8 "/>
<path class="st7" d="M2313.4-3465.3c0.5,2.2,1.3,4.4,2.5,6.3l37.3-14.7c-0.1-0.2-0.1-0.5-0.1-0.7L2313.4-3465.3z"/>
<polyline class="st7" points="2271.1,-3374.2 2239.1,-3248.9 2166.6,-3117.1 2173.9,-3117.1 2256.7,-3248.2 2300.1,-3371.2 "/>
<path class="st10" d="M2389.4-3362.8l-8.4-1.7l11.6-56l8.4,1.7L2389.4-3362.8z M2382-3365.2l6.7,1.4l11.2-54.3l-6.7-1.4L2382-3365.2  z"/>
<path class="st4" d="M2310.5-3464.7l46.2-10.6c0,0,0,0,0,0c-2.9-12.8-15.7-20.7-28.4-17.8  C2315.5-3490.2,2307.5-3477.4,2310.5-3464.7z"/>
<path class="st11" d="M2291.4-3383.6c-2-5.2-4.9-13.1-6.4-15.4c-6.4-7.3-5.7-18.3,1.6-24.7s18.3-5.7,24.7,1.6  c5.3,5.8,8.6,14.8,12.9,26.2c2.6,6.9,7.7,20.4,11.5,25.6c6.4-1.8,18.9-8.5,26-12.3c16.4-8.8,28.2-15.1,39.2-13.5  c8.8,1.2,15.3,9,15.1,17.9c-0.3,9.7-8.4,17.2-18.1,16.9c-3.8,1-13.3,6.1-19.7,9.6c-16.2,8.7-31.6,16.9-45.1,16.9  C2309.7-3334.8,2299.5-3361.8,2291.4-3383.6z M2285.2-3398.6"/>
<path class="st10" d="M2285.1-3398.6l-7.9-2.1l-6.1,26.5l24.7,2.2c-1.6-3.9-3.1-7.8-4.5-11.6  C2289.4-3388.6,2286.7-3396,2285.1-3398.6z"/>
<path class="st10" d="M2356.4-3379.8l-29.1-7.7c2.6,6.5,5.7,13.7,8.3,17.2C2342.1-3371.9,2356.4-3379.8,2356.4-3379.8z"/>
<path class="st7" d="M2276.8-3401.2c0,0,23.3,53.2,32,53.2l0,0c-7.7-9.8-12.9-23.5-17.4-35.6c-1.9-5-4.7-12.4-6.2-15L2276.8-3401.2z  "/>
<path class="st10" d="M2273.4-3401.7l83,21.9l12.1-6.4c1.2-22.4-13.5-44.3-36.1-50.3C2306.6-3443.3,2280.2-3427.5,2273.4-3401.7z"/>
<ellipse transform="matrix(0.2222 -0.975 0.975 0.2222 5159.8867 -398.7517)" class="st7" cx="2330" cy="-3433.5" rx="3.4" ry="14.6"/>
<path class="st1" d="M2355.1-3379.9c8-29.4-10.4-51.4-12.5-51.7"/>
<path class="st12" d="M2349.1-3376l-19.6-6.3c2.1,4.8,4.3,9.5,6.2,12.1C2340.2-3371.8,2344.7-3373.7,2349.1-3376z"/>
<path class="st12" d="M2329.4-3382.4l-1.7-4C2328.3-3385,2328.9-3383.7,2329.4-3382.4z"/>
<path class="st7" d="M2349.1-3376c4.6-2.3,7.3-3.8,7.3-3.8l-22.4-5.9l-6.7-1.7l0.4,1.1l1.7,4l0,0L2349.1-3376z"/>
<path class="st7" d="M2329.4-3382.3"/>
<path class="st7" d="M2327.8-3386.4L2327.8-3386.4L2327.8-3386.4z"/>
<path class="st1" d="M1958.6-2986.4v11.3c0,1.1,0.9,1.9,1.9,1.9h56.2c1.1,0,1.9-0.9,1.9-1.9v-56.2c0-1.1-0.9-1.9-1.9-1.9h-56.2  c-1.1,0-1.9,0.9-1.9,1.9v11.4"/>
<path class="st1" d="M1358.2-3103.6l-71.8-0.6c-1.1,0-2,0.9-2,2l-2.1,298.2"/>
<path class="st1" d="M1282.3-2961.1h204.3c1.1,0,2-0.9,2-2v-18.4"/>
<path class="st1" d="M1910.3-3104.3h-78.1c-1.1,0-2,0.9-2,2l-0.4,173.5c0,1.1-0.9,2-2,2h-18.9"/>
<path class="st13" d="M1410.6-2814.8h-83.2"/>
<circle class="st15" cx="1987.6" cy="-3003.6" r="14.3"/>
<circle class="st16" cx="1987.6" cy="-3003.6" r="14.3"/>
<circle class="st17" cx="1987.6" cy="-3003.6" r="12.4"/>
<path class="st18" d="M1984.8-3005.1l0.9-0.9c0.8-0.8,2-0.8,2.8,0l0.9,0.9c0.8,0.8,0.8,2,0,2.8l-0.9,0.9c-0.8,0.8-2,0.8-2.8,0  l-0.9-0.9C1984-3003,1984-3004.3,1984.8-3005.1z"/>
<path class="st7" d="M1987.6-2989.3c7.9,0,14.3-6.4,14.3-14.4c0-7.9-6.4-14.3-14.3-14.3h-0.2c-0.1,0-0.2,0-0.3,0l2-0.2  c0,0,16.1-1.2,15.9,14.5s-15.9,14.5-15.9,14.5l-2-0.2L1987.6-2989.3L1987.6-2989.3z"/>
<line class="st1" x1="1926.2" y1="-3000" x2="1953.4" y2="-3000"/>
<line class="st1" x1="1938.3" y1="-3004.7" x2="1965.4" y2="-3004.7"/>
<circle class="st15" cx="1987.6" cy="-3104.6" r="14.3"/>
<circle class="st16" cx="1987.6" cy="-3104.6" r="14.3"/>
<circle class="st17" cx="1987.6" cy="-3104.6" r="12.4"/>
<path class="st18" d="M1984.8-3106.1l0.9-0.9c0.8-0.8,2-0.8,2.8,0l0.9,0.9c0.8,0.8,0.8,2,0,2.8l-0.9,0.9c-0.8,0.8-2,0.8-2.8,0  l-0.9-0.9C1984-3104,1984-3105.3,1984.8-3106.1z"/>
<path class="st7" d="M1987.6-3090.3c7.9,0,14.3-6.4,14.3-14.3c0-7.9-6.4-14.3-14.3-14.3h-0.2c-0.1,0-0.2,0-0.3,0l2-0.2  c0,0,16.1-1.2,15.9,14.5s-15.9,14.5-15.9,14.5l-2-0.2L1987.6-3090.3L1987.6-3090.3z"/>
<line class="st1" x1="1926.2" y1="-3101" x2="1953.4" y2="-3101"/>
<line class="st1" x1="1938.3" y1="-3105.7" x2="1965.4" y2="-3105.7"/>
<path class="st1" d="M1453.1-2812.1h29.4c1.5,0,2.8,1.2,2.8,2.8l0,0c0,1.5-1.2,2.8-2.8,2.8h-29.4c-1.5,0-2.8-1.2-2.8-2.8l0,0  C1450.3-2810.8,1451.5-2812.1,1453.1-2812.1z"/>
<path class="st1" d="M1492-2812.3h20.1c1.5,0,2.8,1.2,2.8,2.8l0,0c0,1.5-1.2,2.8-2.8,2.8H1492c-1.5,0-2.8-1.2-2.8-2.8l0,0  C1489.3-2811.1,1490.5-2812.3,1492-2812.3z"/>
<path class="st1" d="M1464-2801.3h28.1c1.5,0,2.8,1.2,2.8,2.8l0,0c0,1.5-1.2,2.8-2.8,2.8H1464c-1.5,0-2.8-1.2-2.8-2.8l0,0  C1461.3-2800.1,1462.5-2801.3,1464-2801.3z"/>
<path class="st1" d="M1503.1-2801.1h9.4c1.5,0,2.8,1.2,2.8,2.8l0,0c0,1.5-1.2,2.8-2.8,2.8h-9.4c-1.5,0-2.8-1.2-2.8-2.8l0,0  C1500.3-2799.8,1501.5-2801.1,1503.1-2801.1z"/>
<path class="st1" d="M1444-2801.3h8.1c1.5,0,2.8,1.2,2.8,2.8l0,0c0,1.5-1.2,2.8-2.8,2.8h-8.1c-1.5,0-2.8-1.2-2.8-2.8l0,0  C1441.3-2800.1,1442.5-2801.3,1444-2801.3z"/>
<path class="st1" d="M1417.8-3121.4v-10.6c0-1.1-0.9-2-2-2h-55.5c-1.1,0-2,0.9-2,2v55.6c0,1.1,0.9,2,2,2h55.5c1.1,0,2-0.9,2-2v-10.6  "/>
<path class="st1" d="M1478.3-2820.8v-11.4c0-1.1-0.9-2-2-2h-56c-1.1,0-2,0.9-2,2v56c0,1.1,0.9,2,2,2h56c1.1,0,2-0.9,2-2v-10.3"/>
<path class="st1" d="M1958.6-3087.4v11.1c0,1.1,0.9,2,2,2h56c1.1,0,2-0.9,2-2v-56c0-1.1-0.9-2-2-2h-56c-1.1,0-2,0.9-2,2v11.4"/>
<path class="st1" d="M1410.3-3112.5h29.4c1.5,0,2.8,1.2,2.8,2.8l0,0c0,1.5-1.2,2.8-2.8,2.8h-29.4c-1.5,0-2.8-1.2-2.8-2.8l0,0  C1407.5-3111.3,1408.8-3112.5,1410.3-3112.5z"/>
<path class="st1" d="M1380.6-3112.8h20.1c1.5,0,2.8,1.2,2.8,2.8l0,0c0,1.5-1.2,2.8-2.8,2.8h-20.1c-1.5,0-2.8-1.2-2.8-2.8l0,0  C1377.8-3111.5,1379.1-3112.8,1380.6-3112.8z"/>
<path class="st1" d="M1400.6-3101.8h28.1c1.5,0,2.8,1.2,2.8,2.8l0,0c0,1.5-1.2,2.8-2.8,2.8h-28.1c-1.5,0-2.8-1.2-2.8-2.8l0,0  C1397.8-3100.5,1399.1-3101.8,1400.6-3101.8z"/>
<path class="st1" d="M1380.3-3101.5h9.4c1.5,0,2.8,1.2,2.8,2.8l0,0c0,1.5-1.2,2.8-2.8,2.8h-9.4c-1.5,0-2.8-1.2-2.8-2.8l0,0  C1377.5-3100.3,1378.8-3101.5,1380.3-3101.5z"/>
<path class="st1" d="M1440.6-3101.8h8.1c1.5,0,2.8,1.2,2.8,2.8l0,0c0,1.5-1.2,2.8-2.8,2.8h-8.1c-1.5,0-2.8-1.2-2.8-2.8l0,0  C1437.8-3100.5,1439.1-3101.8,1440.6-3101.8z"/>
<path class="st1" d="M1458-3037.4h48.7c1.5,0,2.8,1.2,2.8,2.8l0,0c0,1.5-1.2,2.8-2.8,2.8H1458c-1.5,0-2.8-1.2-2.8-2.8l0,0  C1455.2-3036.2,1456.5-3037.4,1458-3037.4z"/>
<path class="st1" d="M1518.7-3037.4h3.8c1.5,0,2.8,1.2,2.8,2.8l0,0c0,1.5-1.2,2.8-2.8,2.8h-3.8c-1.5,0-2.8-1.2-2.8-2.8l0,0  C1516-3036.2,1517.2-3037.4,1518.7-3037.4z"/>
<path class="st1" d="M1458-3025.9h20.1c1.5,0,2.8,1.2,2.8,2.8l0,0c0,1.5-1.2,2.8-2.8,2.8H1458c-1.5,0-2.8-1.2-2.8-2.8l0,0  C1455.2-3024.6,1456.5-3025.9,1458-3025.9z"/>
<path class="st4" d="M1488.7-3025.6h11.4c1.5,0,2.8,1.2,2.8,2.8l0,0c0,1.5-1.2,2.8-2.8,2.8h-11.4c-1.5,0-2.8-1.2-2.8-2.8l0,0  C1485.9-3024.4,1487.2-3025.6,1488.7-3025.6z"/>
<path class="st1" d="M1472-3014.9h30.1c1.5,0,2.8,1.2,2.8,2.8l0,0c0,1.5-1.2,2.8-2.8,2.8H1472c-1.5,0-2.8-1.2-2.8-2.8l0,0  C1469.2-3013.6,1470.5-3014.9,1472-3014.9z"/>
<path class="st1" d="M1458-3014.9h3.8c1.5,0,2.8,1.2,2.8,2.8l0,0c0,1.5-1.2,2.8-2.8,2.8h-3.8c-1.5,0-2.8-1.2-2.8-2.8l0,0  C1455.2-3013.6,1456.5-3014.9,1458-3014.9z"/>
<path class="st1" d="M1513.1-3014.9h9.1c1.5,0,2.8,1.2,2.8,2.8l0,0c0,1.5-1.2,2.8-2.8,2.8h-9.1c-1.5,0-2.8-1.2-2.8-2.8l0,0  C1510.4-3013.6,1511.6-3014.9,1513.1-3014.9z"/>
<path class="st1" d="M1511.1-3025.9h11.1c1.5,0,2.8,1.2,2.8,2.8l0,0c0,1.5-1.2,2.8-2.8,2.8h-11.1c-1.5,0-2.8-1.2-2.8-2.8l0,0  C1508.4-3024.6,1509.6-3025.9,1511.1-3025.9z"/>
<g>
	<path class="st19" d="M2729.9-3083.9c2,84.8,4.6,129.2,5.1,152.7c0.5,23.5,19.9,40.3,37.8,51.6c17.9,11.2,155.7,130.7,155.7,130.7   l18.4,33.2l74-113.9l-147.6-112.9l-15.3-102.1L2729.9-3083.9z"/>
	<path class="st4" d="M2969.5-2868.9l-74.7,91c19.7,16.9,33.7,29,33.7,29l18.4,33.2l74-113.9L2969.5-2868.9z"/>
	<path class="st11" d="M2791-3200.1c-29.8,7-45.5,15.5-80.5,17.5c-25.9-28.9-49.4-72.5-49.4-81.4c7.8-16.3-5.3-47.5-33.7-48   c-11.8-0.2-33.8,36-29.3,77.5c3.8,34.9,53.1,106.7,81,117.6s59.9,8.8,109.6,3C2806.5-3179.5,2791-3200.1,2791-3200.1z"/>
	<path class="st20" d="M2722.2-3188.8c-1.8,25,0,84,0,84c17.9,3.1,76.6-4.3,76.6-4.3c8.7-50.1,1.6-93.2,1.6-93.2   C2762.8-3193.9,2730.4-3189.3,2722.2-3188.8z"/>
	<g>
		
			<linearGradient id="SVGID_3_" gradientUnits="userSpaceOnUse" x1="-668.0411" y1="-4603.2402" x2="-668.4464" y2="-4663.1045" gradientTransform="matrix(0.4352 -0.8022 -1.4172 -0.7733 -3631.9299 -7512.1782)">
			<stop offset="0" style="stop-color:#0A1630;stop-opacity:0"/>
			<stop offset="0.11" style="stop-color:#152959;stop-opacity:0.1"/>
			<stop offset="0.28" style="stop-color:#254290;stop-opacity:0.25"/>
			<stop offset="0.45" style="stop-color:#3156BC;stop-opacity:0.36"/>
			<stop offset="0.63" style="stop-color:#3965DB;stop-opacity:0.44"/>
			<stop offset="0.81" style="stop-color:#3E6DEE;stop-opacity:0.48"/>
			<stop offset="1" style="stop-color:#4070F4;stop-opacity:0.5"/>
		</linearGradient>
		<polygon class="st21" points="2702.8,-3399.2 2676.5,-3336.8 2570,-3403.7 2588.3,-3436.1   "/>
		<path class="st5" d="M2682.1-3342.4l21.2-54.6c-15-5.9-32,1.6-37.9,16.6c0,0,0,0.1,0,0.1l0,0    C2659.5-3365.2,2667-3348.3,2682.1-3342.4C2682.1-3342.4,2682.1-3342.4,2682.1-3342.4z"/>
		<path class="st10" d="M2664.7-3380.6c6-15.4,23.4-23.1,38.8-17.1l0.7,0.3l-21.7,56l-0.7-0.3c-13.3-5.2-21.1-19-18.7-33    C2663.5-3376.7,2664-3378.7,2664.7-3380.6z M2702.3-3396.5c-14.8-5.3-31.2,2.5-36.5,17.3c-2.4,6.8-2.2,14.3,0.7,21    c2.9,6.7,8.3,12,15.1,14.8L2702.3-3396.5z"/>
		
			<rect x="2647.4" y="-3382.9" transform="matrix(0.362 -0.9322 0.9322 0.362 4854.6553 348.6238)" class="st7" width="69.2" height="21.6"/>
		<path class="st10" d="M2684-3409.2l21.5,8.4l-25.6,65.9l-21.5-8.3L2684-3409.2z M2703.6-3400l-18.8-7.3l-24.5,63.1l18.8,7.3    L2703.6-3400z"/>
		
			<rect x="2604.7" y="-3302" transform="matrix(0.362 -0.9322 0.9322 0.362 4764.2998 369.7592)" class="st7" width="95.2" height="13"/>
	</g>
	<circle class="st11" cx="2828.1" cy="-3266.5" r="34.1"/>
	<path class="st7" d="M2794.8-3274.7c0,0.3-0.1,0.8-0.2,1.2l62.6,24.7c2-3.3,3.4-6.8,4.2-10.6L2794.8-3274.7z"/>
	<path class="st4" d="M2836.5-3306c-21.4-4.9-42.8,8.4-47.7,29.9c0,0,0,0,0,0l77.6,17.8C2871.3-3279.7,2857.9-3301.1,2836.5-3306z"/>
	<path class="st19" d="M2793.7-3052.2c1.5,81.2,0.8,196.1,15.3,230.6c14.6,34.5,121,209.1,121,209.1c0,13.8,0,26,0,26l126.4-94.2   c0,0-92.7-130.2-106.5-150.9c-13.8-20.7-16.9-54.4-17.6-72.8c-0.8-18.4-7.3-137.9-7.3-137.9L2793.7-3052.2z"/>
	<path class="st10" d="M2818.7-3203.3c-51-2.9-98,41.4-91.4,122c53.1,44.9,114.4,49.5,198.6,51.1   C2926-3093.6,2909.6-3198.2,2818.7-3203.3z"/>
	<path class="st11" d="M2849.9-3104.3c29.1,19.9,50,53.1,50,53.1c-26.6,6.6-69.3,17.8-81.2,62c-9.5,35.4,42.2,59.8,65.7,26.5   c7.1-10.9,40.2-21.8,66.7-30c26.6-8.2,38.8-34.4,32.7-57.9c-6.1-23.5-35.1-94.1-116.4-137.3   C2846-3140.7,2849.9-3104.3,2849.9-3104.3z"/>
	<path class="st10" d="M2826.3-3109.1c15.2,11.9,40.7,35.8,43.5,38.8c25.5-12.3,74.2-39.4,84.8-46.6c-22.8-27.6-53-57.2-93.1-74.5   C2825.2-3122,2826.3-3109.1,2826.3-3109.1z"/>
	<polygon class="st4" points="2905,-2653.9 3011.7,-2743.6 3056.4,-2680.7 2930,-2586.5 2930,-2612.5  "/>
	<path class="st11" d="M2643.6-3309.2c4.7,5.8,13.2,23.6,10.9,42.6c-2.3,19-15.6,37.6-34.2,30.5   C2601.7-3243.2,2643.6-3309.2,2643.6-3309.2z"/>
</g>
<rect x="1155.6" y="-2241.7" class="st10" width="113.2" height="113.2"/>
<rect x="1155.6" y="-2096.8" class="st22" width="113.2" height="113.2"/>
<rect x="1155.6" y="-1952" class="st23" width="113.2" height="113.2"/>
<rect x="1155.6" y="-1807.1" class="st18" width="113.2" height="113.2"/>
<rect x="1304.2" y="-2241.7" class="st11" width="113.2" height="113.2"/>
<rect x="1304.2" y="-2096.8" class="st7" width="113.2" height="113.2"/>
<rect x="1304.2" y="-1952" class="st4" width="113.2" height="113.2"/>
<rect x="1304.2" y="-1807.1" class="st0" width="113.2" height="113.2"/>
<rect x="1452.8" y="-2241.7" class="st15" width="113.2" height="113.2"/>
<rect x="1452.8" y="-2096.8" class="st24" width="113.2" height="113.2"/>
<rect x="1452.8" y="-1952" class="st25" width="113.2" height="113.2"/>
<rect x="1452.8" y="-1807.1" class="st11" width="113.2" height="113.2"/>
<g>
	
		<rect x="1949.4" y="-2055.2" transform="matrix(0.9962 -8.715574e-02 8.715574e-02 0.9962 181.1116 165.809)" class="st26" width="80" height="128"/>
	
		<rect x="1978.4" y="-1946.8" transform="matrix(-0.9063 0.4226 -0.4226 -0.9063 3051.9978 -4442.2578)" class="st26" width="80" height="128"/>
	<polygon class="st27" points="1999.3,-1829.1 2004.8,-1812.5 1994.5,-1784.2 2090,-1828.7 2071.8,-1862.9  "/>
</g>
<g>
	<g>
		
			<linearGradient id="SVGID_4_" gradientUnits="userSpaceOnUse" x1="540.7782" y1="-2169.7295" x2="540.7782" y2="-2353.8848" gradientTransform="matrix(0.9962 8.715574e-02 -8.715574e-02 0.9962 -171.6492 -87.2725)">
			<stop offset="4.262232e-07" style="stop-color:#4070F4;stop-opacity:0.5"/>
			<stop offset="0.75" style="stop-color:#FFFFFF;stop-opacity:0"/>
		</linearGradient>
		<polygon class="st28" points="683.4,-2375.3 461,-2394.8 474.9,-2208.7 637.5,-2194.5   "/>
		<g>
			<g>
				<circle class="st29" cx="557.8" cy="-2226.7" r="22.9"/>
				
					<rect x="551.6" y="-2250.4" transform="matrix(0.9659 0.2588 -0.2588 0.9659 -557.6103 -219.4775)" class="st29" width="6.3" height="45.8"/>
				<circle class="st30" cx="551.7" cy="-2228.3" r="22.9"/>
				<circle class="st0" cx="551.7" cy="-2228.3" r="16.5"/>
				<path class="st22" d="M538.8-2231.7c2.2-8.3,10.4-13.4,18.7-12c-0.5-0.2-1-0.3-1.5-0.5c-8.8-2.4-17.9,2.9-20.2,11.7      s2.9,17.9,11.7,20.2c0.5,0.1,1,0.2,1.5,0.3C541.1-2215,536.6-2223.5,538.8-2231.7z"/>
				<circle class="st31" cx="551.7" cy="-2228.3" r="16.5"/>
				<path class="st32" d="M549.8-2224l-2.8-4.8c-0.3-0.5-0.1-1.1,0.4-1.4l4.8-2.8c0.5-0.3,1.1-0.1,1.4,0.4l2.8,4.8      c0.3,0.5,0.1,1.1-0.4,1.4l-4.8,2.8C550.7-2223.3,550.1-2223.5,549.8-2224z"/>
			</g>
			<g>
				
					<rect x="471.9" y="-2204.1" transform="matrix(0.9962 8.715574e-02 -8.715574e-02 0.9962 -187.3255 -54.1364)" class="st33" width="108.8" height="63.6"/>
				
					<rect x="580.4" y="-2197" transform="matrix(0.9962 8.715574e-02 -8.715574e-02 0.9962 -186.3961 -61.1956)" class="st30" width="54.4" height="63.6"/>
				<polygon class="st30" points="460.4,-2226 474.9,-2208.7 583.3,-2199.2 568.8,-2216.5     "/>
				<polygon class="st33" points="600.5,-2213.7 583.3,-2199.2 637.5,-2194.5 654.7,-2209     "/>
			</g>
			<g>
				<circle class="st29" cx="551.6" cy="-2314" r="13"/>
				
					<rect x="551.6" y="-2326.5" transform="matrix(-0.9659 -0.2588 0.2588 -0.9659 1686.6503 -4404.937)" class="st29" width="3.6" height="26"/>
				<circle class="st30" cx="555.1" cy="-2313" r="13"/>
				<circle class="st0" cx="555.1" cy="-2313" r="9.4"/>
				<path class="st22" d="M562.4-2311.1c1.3-4.7-1.3-9.5-5.8-11.2c0.3,0,0.6,0.1,0.9,0.2c5,1.3,8,6.5,6.6,11.5      c-1.3,5-6.5,8-11.5,6.6c-0.3-0.1-0.6-0.2-0.9-0.3C556.5-2303.4,561.2-2306.4,562.4-2311.1z"/>
				<circle class="st31" cx="555.1" cy="-2313" r="9.4"/>
				<path class="st32" d="M554.8-2310.4l2.7-1.6c0.3-0.2,0.4-0.5,0.2-0.8l-1.6-2.7c-0.2-0.3-0.5-0.4-0.8-0.2l-2.7,1.6      c-0.3,0.2-0.4,0.5-0.2,0.8l1.6,2.7C554.2-2310.3,554.5-2310.2,554.8-2310.4z"/>
			</g>
			<g>
				<circle class="st34" cx="593.3" cy="-2354.7" r="4.6"/>
				
					<rect x="593.3" y="-2359.5" transform="matrix(-0.9659 0.2588 -0.2588 -0.9659 558.1606 -4783.2393)" class="st34" width="1.3" height="9.2"/>
				<circle class="st34" cx="594.6" cy="-2355" r="4.6"/>
				<circle class="st0" cx="594.6" cy="-2355" r="3.3"/>
				<path class="st0" d="M597.2-2355.7c-0.4-1.7-2.1-2.7-3.8-2.4c0.1,0,0.2-0.1,0.3-0.1c1.8-0.5,3.6,0.6,4.1,2.3      c0.5,1.8-0.6,3.6-2.3,4.1c-0.1,0-0.2,0-0.3,0.1C596.7-2352.4,597.6-2354.1,597.2-2355.7z"/>
				<circle class="st35" cx="594.6" cy="-2355" r="3.3"/>
				<path class="st34" d="M594.9-2354.2l0.6-1c0.1-0.1,0-0.2-0.1-0.3l-1-0.6c-0.1-0.1-0.2,0-0.3,0.1l-0.6,1c-0.1,0.1,0,0.2,0.1,0.3      l1,0.6C594.8-2354,594.9-2354.1,594.9-2354.2z"/>
			</g>
			<g>
				<circle class="st36" cx="612.9" cy="-2234.6" r="3.5"/>
				
					<rect x="611.9" y="-2238.2" transform="matrix(0.9659 0.2588 -0.2588 0.9659 -557.5192 -234.6499)" class="st36" width="1" height="7"/>
				<circle class="st36" cx="611.9" cy="-2234.8" r="3.5"/>
				<circle class="st5" cx="611.9" cy="-2234.8" r="2.5"/>
				<path class="st5" d="M610-2235.4c0.3-1.3,1.6-2.1,2.9-1.8c-0.1,0-0.2-0.1-0.2-0.1c-1.4-0.4-2.7,0.4-3.1,1.8      c-0.4,1.4,0.4,2.7,1.8,3.1c0.1,0,0.2,0,0.2,0.1C610.3-2232.8,609.6-2234.1,610-2235.4z"/>
				<circle class="st37" cx="611.9" cy="-2234.8" r="2.5"/>
				<path class="st36" d="M611.6-2234.2l-0.4-0.7c0-0.1,0-0.2,0.1-0.2l0.7-0.4c0.1,0,0.2,0,0.2,0.1l0.4,0.7c0,0.1,0,0.2-0.1,0.2      l-0.7,0.4C611.8-2234.1,611.7-2234.1,611.6-2234.2z"/>
			</g>
			<g>
				<circle class="st34" cx="507.5" cy="-2278.8" r="8.6"/>
				
					<rect x="505.3" y="-2287.8" transform="matrix(0.9063 0.4226 -0.4226 0.9063 -915.8186 -427.5946)" class="st34" width="2.4" height="17.1"/>
				<circle class="st34" cx="505.4" cy="-2279.8" r="8.6"/>
				<circle class="st0" cx="505.4" cy="-2279.8" r="6.2"/>
				<path class="st0" d="M500.9-2281.9c1.4-2.9,4.7-4.3,7.7-3.2c-0.2-0.1-0.3-0.2-0.5-0.3c-3.1-1.4-6.8-0.1-8.2,3s-0.1,6.8,3,8.2      c0.2,0.1,0.4,0.2,0.5,0.2C500.6-2275.6,499.5-2279,500.9-2281.9z"/>
				<circle class="st35" cx="505.4" cy="-2279.8" r="6.2"/>
				<path class="st34" d="M504.4-2278.3l-0.7-1.9c-0.1-0.2,0-0.4,0.2-0.5l1.9-0.7c0.2-0.1,0.4,0,0.5,0.2l0.7,1.9      c0.1,0.2,0,0.4-0.2,0.5l-1.9,0.7C504.7-2278,504.5-2278.1,504.4-2278.3z"/>
			</g>
			<g>
				<circle class="st29" cx="615.3" cy="-2279.6" r="8.1"/>
				
					<rect x="613.1" y="-2287.4" transform="matrix(0.9659 -0.2588 0.2588 0.9659 610.8526 81.3006)" class="st29" width="2.3" height="16.3"/>
				<circle class="st30" cx="613.1" cy="-2279" r="8.1"/>
				<circle class="st0" cx="613.1" cy="-2279" r="5.9"/>
				<path class="st22" d="M608.5-2277.8c-0.8-3,0.8-6,3.6-7c-0.2,0-0.4,0.1-0.6,0.1c-3.1,0.8-5,4.1-4.2,7.2c0.8,3.1,4.1,5,7.2,4.2      c0.2,0,0.4-0.1,0.5-0.2C612.2-2273,609.3-2274.8,608.5-2277.8z"/>
				<circle class="st31" cx="613.1" cy="-2279" r="5.9"/>
				<path class="st32" d="M613.3-2277.3l-1.7-1c-0.2-0.1-0.2-0.3-0.1-0.5l1-1.7c0.1-0.2,0.3-0.2,0.5-0.1l1.7,1      c0.2,0.1,0.2,0.3,0.1,0.5l-1,1.7C613.7-2277.3,613.5-2277.2,613.3-2277.3z"/>
			</g>
		</g>
	</g>
	<g>
		<polygon class="st10" points="224.4,-1906.3 250.3,-1906.3 280.3,-1936.3 254.4,-1936.3   "/>
		<polygon class="st4" points="442.4,-2336 422.1,-2336 398.6,-2359.5 418.9,-2359.5   "/>
	</g>
	<g>
		<g>
			<circle class="st29" cx="105" cy="-2092.4" r="15.3"/>
			
				<rect x="105" y="-2107.5" transform="matrix(-0.9962 -8.715574e-02 8.715574e-02 -0.9962 396.0868 -4167.0415)" class="st29" width="4.2" height="30.6"/>
			<circle class="st30" cx="109.2" cy="-2092" r="15.3"/>
			<circle class="st0" cx="109.2" cy="-2092" r="11.1"/>
			<path class="st22" d="M118.1-2091.2c0.5-5.7-3.5-10.8-9-11.8c0.4,0,0.7,0,1.1,0c6.1,0.5,10.6,5.9,10,12c-0.5,6.1-5.9,10.6-12,10     c-0.4,0-0.7-0.1-1-0.1C112.8-2081.2,117.6-2085.5,118.1-2091.2z"/>
			<circle class="st31" cx="109.2" cy="-2092" r="11.1"/>
			<path class="st32" d="M109.4-2088.8l2.8-2.4c0.3-0.3,0.3-0.7,0.1-1l-2.4-2.8c-0.3-0.3-0.7-0.3-1-0.1l-2.8,2.4     c-0.3,0.3-0.3,0.7-0.1,1l2.4,2.8C108.7-2088.6,109.1-2088.6,109.4-2088.8z"/>
		</g>
		<g>
			<circle class="st34" cx="223.2" cy="-2021.5" r="8.6"/>
			
				<rect x="221" y="-2030.6" transform="matrix(0.9063 0.4226 -0.4226 0.9063 -833.7218 -283.3404)" class="st34" width="2.4" height="17.1"/>
			<circle class="st34" cx="221.1" cy="-2022.5" r="8.6"/>
			<circle class="st0" cx="221.1" cy="-2022.5" r="6.2"/>
			<path class="st0" d="M216.6-2024.6c1.4-2.9,4.7-4.3,7.7-3.2c-0.2-0.1-0.3-0.2-0.5-0.3c-3.1-1.4-6.8-0.1-8.2,3     c-1.4,3.1-0.1,6.8,3,8.2c0.2,0.1,0.4,0.2,0.5,0.2C216.3-2018.3,215.2-2021.7,216.6-2024.6z"/>
			<circle class="st35" cx="221.1" cy="-2022.5" r="6.2"/>
			<path class="st34" d="M220.1-2021.1l-0.7-1.9c-0.1-0.2,0-0.4,0.2-0.5l1.9-0.7c0.2-0.1,0.4,0,0.5,0.2l0.7,1.9     c0.1,0.2,0,0.4-0.2,0.5l-1.9,0.7C220.4-2020.7,220.2-2020.8,220.1-2021.1z"/>
		</g>
		<g>
			<circle class="st29" cx="169.5" cy="-2250.1" r="9.5"/>
			
				<rect x="166.9" y="-2259.5" transform="matrix(0.9962 -8.715574e-02 8.715574e-02 0.9962 196.7392 6.0971)" class="st29" width="2.6" height="19.1"/>
			<circle class="st30" cx="166.9" cy="-2249.9" r="9.5"/>
			<circle class="st0" cx="166.9" cy="-2249.9" r="6.9"/>
			<path class="st22" d="M161.3-2249.4c-0.3-3.6,2.2-6.7,5.6-7.4c-0.2,0-0.4,0-0.7,0c-3.8,0.3-6.6,3.7-6.3,7.4     c0.3,3.8,3.7,6.6,7.4,6.3c0.2,0,0.4-0.1,0.7-0.1C164.6-2243.1,161.7-2245.8,161.3-2249.4z"/>
			<circle class="st31" cx="166.9" cy="-2249.9" r="6.9"/>
			<path class="st32" d="M166.7-2247.9l-1.8-1.5c-0.2-0.2-0.2-0.4-0.1-0.6l1.5-1.8c0.2-0.2,0.4-0.2,0.6-0.1l1.8,1.5     c0.2,0.2,0.2,0.4,0.1,0.6l-1.5,1.8C167.2-2247.8,166.9-2247.8,166.7-2247.9z"/>
		</g>
	</g>
	<g>
		<g>
			<path class="st31" d="M137.8-2289.9v3.8c0,2.8-2.2,5-5,5H90.3c-2.8,0-5-2.2-5-5v-42.5c0-2.8,2.2-5,5-5h42.5c2.8,0,5,2.2,5,5v13.8     "/>
			<g>
				<path class="st31" d="M128.2-2319.2h-8.4c-1.3,0-2.4,1.1-2.4,2.4c0,1.3,1.1,2.4,2.4,2.4h8.4c1.3,0,2.4-1.1,2.4-2.4      C130.6-2318.1,129.5-2319.2,128.2-2319.2z"/>
				<path class="st31" d="M112.1-2319.2h-5.1c-1.3,0-2.4,1.1-2.4,2.4c0,1.3,1.1,2.4,2.4,2.4h5.1c1.3,0,2.4-1.1,2.4-2.4      C114.4-2318.1,113.4-2319.2,112.1-2319.2z"/>
				<path class="st31" d="M128.2-2309.6H112c-1.3,0-2.4,1.1-2.4,2.4c0,1.3,1.1,2.4,2.4,2.4h16.2c1.3,0,2.4-1.1,2.4-2.4      C130.6-2308.6,129.5-2309.6,128.2-2309.6z"/>
				<path class="st31" d="M142.2-2309.6H136c-1.3,0-2.4,1.1-2.4,2.4c0,1.3,1.1,2.4,2.4,2.4h6.2c1.3,0,2.4-1.1,2.4-2.4      C144.6-2308.6,143.5-2309.6,142.2-2309.6z"/>
				<path class="st31" d="M116.4-2300.1H94.8c-1.3,0-2.4,1.1-2.4,2.4c0,1.3,1.1,2.4,2.4,2.4h21.6c1.3,0,2.4-1.1,2.4-2.4      C118.8-2299,117.8-2300.1,116.4-2300.1z"/>
				<path class="st27" d="M128.2-2300.1h-4c-1.3,0-2.4,1.1-2.4,2.4c0,1.3,1.1,2.4,2.4,2.4h4c1.3,0,2.4-1.1,2.4-2.4      C130.6-2299,129.5-2300.1,128.2-2300.1z"/>
				<path class="st31" d="M150-2300.1h-14c-1.3,0-2.4,1.1-2.4,2.4c0,1.3,1.1,2.4,2.4,2.4h14c1.3,0,2.4-1.1,2.4-2.4      C152.4-2299,151.3-2300.1,150-2300.1z"/>
			</g>
			<path class="st31" d="M217.2-2211.3H116.5c-2.8,0-5-2.2-5-5v-54.7"/>
		</g>
		<g>
			<path class="st31" d="M229.3-2128.7h31.9c2.8,0,5,2.2,5,5l-0.1,128.9c0,2.8,2.2,5,5,5h55.8"/>
			<path class="st31" d="M219.3-2125.1v12.4c0,2.8-2.2,5-5,5H162c-2.8,0-5-2.2-5-5v-32.1c0-2.8,2.2-5,5-5h52.3c2.8,0,5,2.2,5,5"/>
			<path class="st27" d="M178.1-2137.2c0,1.2,0.9,2.1,2.1,2.1h4.6c1.2,0,2.1-0.9,2.1-2.1c0-1.2-0.9-2.1-2.1-2.1h-4.6     C179-2139.3,178.1-2138.4,178.1-2137.2z"/>
			<path class="st31" d="M189.9-2137.2c0,1.2,0.9,2.1,2.1,2.1h35.2c1.2,0,2.1-0.9,2.1-2.1c0-1.2-0.9-2.1-2.1-2.1H192     C190.9-2139.3,189.9-2138.4,189.9-2137.2z"/>
			<path class="st31" d="M169.2-2128.7c0,1.2,0.9,2.1,2.1,2.1h11.2c1.2,0,2.1-0.9,2.1-2.1c0-1.2-0.9-2.1-2.1-2.1h-11.2     C170.2-2130.8,169.2-2129.9,169.2-2128.7z"/>
			<path class="st31" d="M187.6-2128.7c0,1.2,0.9,2.1,2.1,2.1h13.6c1.2,0,2.1-0.9,2.1-2.1c0-1.2-0.9-2.1-2.1-2.1h-13.6     C188.6-2130.8,187.6-2129.9,187.6-2128.7z"/>
			<path class="st27" d="M208.4-2128.7c0,1.2,0.9,2.1,2.1,2.1h2.4c1.2,0,2.1-0.9,2.1-2.1c0-1.2-0.9-2.1-2.1-2.1h-2.4     C209.4-2130.8,208.4-2129.9,208.4-2128.7z"/>
			<path class="st31" d="M169.2-2120.3c0,1.2,0.9,2.1,2.1,2.1h25.1c1.2,0,2.1-0.9,2.1-2.1c0-1.2-0.9-2.1-2.1-2.1h-25.1     C170.2-2122.4,169.2-2121.4,169.2-2120.3z"/>
			<path class="st31" d="M161.2-2120.3c0,1.2,0.9,2.1,2.1,2.1h0.8c1.2,0,2.1-0.9,2.1-2.1c0-1.2-0.9-2.1-2.1-2.1h-0.8     C162.2-2122.4,161.2-2121.4,161.2-2120.3z"/>
			<path class="st31" d="M201.5-2120.3c0,1.2,0.9,2.1,2.1,2.1h9.3c1.2,0,2.1-0.9,2.1-2.1c0-1.2-0.9-2.1-2.1-2.1h-9.3     C202.5-2122.4,201.5-2121.4,201.5-2120.3z"/>
		</g>
		<g>
			<path class="st31" d="M463.8-2092.7h105.5c2.8,0,5,2.2,5,5v87.7"/>
			<path class="st31" d="M612.9-1970.5v-14.4c0-2.8-2.2-5-5-5h-67.3c-2.8,0-5,2.2-5,5v34.1c0,2.8,2.2,5,5,5h67.3c2.8,0,5-2.2,5-5"/>
			<path class="st31" d="M571.8-1955.6h-24c-1.4,0-2.5-1.1-2.5-2.5s1.1-2.5,2.5-2.5h24c1.4,0,2.5,1.1,2.5,2.5     S573.2-1955.6,571.8-1955.6z"/>
			<path class="st31" d="M608-1955.6h-14c-1.4,0-2.5-1.1-2.5-2.5s1.1-2.5,2.5-2.5h14c1.4,0,2.5,1.1,2.5,2.5S609.4-1955.6,608-1955.6     z"/>
			<path class="st31" d="M617.9-1955.6h-2c-1.4,0-2.5-1.1-2.5-2.5s1.1-2.5,2.5-2.5h2c1.4,0,2.5,1.1,2.5,2.5     S619.2-1955.6,617.9-1955.6z"/>
			<path class="st27" d="M586.1-1955.6h-6.4c-1.4,0-2.5-1.1-2.5-2.5s1.1-2.5,2.5-2.5h6.4c1.4,0,2.5,1.1,2.5,2.5     S587.5-1955.6,586.1-1955.6z"/>
			<path class="st31" d="M600.7-1965.4h-42.8c-1.4,0-2.5-1.1-2.5-2.5s1.1-2.5,2.5-2.5h42.8c1.4,0,2.5,1.1,2.5,2.5     S602-1965.4,600.7-1965.4z"/>
			<path class="st31" d="M559.8-1975.2h-11.9c-1.4,0-2.5-1.1-2.5-2.5s1.1-2.5,2.5-2.5h11.9c1.4,0,2.5,1.1,2.5,2.5     S561.1-1975.2,559.8-1975.2z"/>
			<path class="st31" d="M590.4-1975.2h-22.7c-1.4,0-2.5-1.1-2.5-2.5s1.1-2.5,2.5-2.5h22.7c1.4,0,2.5,1.1,2.5,2.5     S591.7-1975.2,590.4-1975.2z"/>
		</g>
		<g>
			<path class="st31" d="M159.1-1977.5c0,2.8-2.2,5-5,5h-34.6c-2.8,0-5-2.2-5-5v-34.6c0-2.8,2.2-5,5-5h34.6c2.8,0,5,2.2,5,5v14.8"/>
			<path class="st31" d="M256.1-2049.3H141.8c-2.8,0-5,2.2-5,5v17.2"/>
			<path class="st31" d="M119.4-2004.7c0,1.4,1.1,2.5,2.5,2.5h10.8c1.4,0,2.5-1.1,2.5-2.5c0-1.4-1.1-2.5-2.5-2.5h-10.8     C120.5-2007.2,119.4-2006.1,119.4-2004.7z"/>
			<path class="st27" d="M138.1-2004.7c0,1.4,1.1,2.5,2.5,2.5h2.3c1.4,0,2.5-1.1,2.5-2.5c0-1.4-1.1-2.5-2.5-2.5h-2.3     C139.2-2007.2,138.1-2006.1,138.1-2004.7z"/>
			<path class="st31" d="M119.4-1994.8c0,1.4,1.1,2.5,2.5,2.5h6.2c1.4,0,2.5-1.1,2.5-2.5c0-1.4-1.1-2.5-2.5-2.5h-6.2     C120.5-1997.3,119.4-1996.2,119.4-1994.8z"/>
			<path class="st31" d="M133.5-1994.8c0,1.4,1.1,2.5,2.5,2.5h15.6c1.4,0,2.5-1.1,2.5-2.5c0-1.4-1.1-2.5-2.5-2.5H136     C134.6-1997.3,133.5-1996.2,133.5-1994.8z"/>
			<path class="st31" d="M159.1-1982.4h2.6c1.4,0,2.5-1.1,2.5-2.5c0-1.4-1.1-2.5-2.5-2.5H143c-1.4,0-2.5,1.1-2.5,2.5     c0,1.4,1.1,2.5,2.5,2.5H159.1"/>
			<path class="st31" d="M119.4-1984.9c0,1.4,1.1,2.5,2.5,2.5H135c1.4,0,2.5-1.1,2.5-2.5c0-1.4-1.1-2.5-2.5-2.5h-13.2     C120.5-1987.4,119.4-1986.2,119.4-1984.9z"/>
		</g>
	</g>
	<g>
		<path class="st11" d="M420.2-2142.8c-13.4,4.3-27.9,6.7-42.9,6.7c-25.2,0-48.7-6.6-68.4-17.9l-0.2,2.1    c21,18.7,51.5,30.5,85.4,30.5c10.1,0,19.9-1,29.2-3l-1.4-15.4L420.2-2142.8z"/>
		<path class="st38" d="M356.4-2209.4c-9.3,0.5-18.9,0.8-28.7,0.8c-14.1,0-27.8-0.6-40.9-1.7c-5.8-0.5-11.1-3.4-14.5-8.2    c-10.4-14.7-18.1-36.1-21.3-60.9"/>
		<path class="st10" d="M345-2225.6c-0.2-4.3-1.3-8.3-3-12.2c-5.8,1-11.8,1.7-18.1,2c-7,0.4-13.8,0.2-20.3-0.4c-0.5,0-1,0.3-1.1,0.9    l-6.7,50c-0.5,3.6,2.9,6.5,6.3,5.5C328-2186.9,346.1-2205.2,345-2225.6z"/>
		<polygon class="st11" points="351.4,-2028.9 344.5,-2108.3 340.2,-2034.1   "/>
		<g>
			<path class="st31" d="M384.6-2101.7l5.3-60.4l-79.7-7l-7.7,88.3c-1.5,16.8,7.7,32.6,22.9,39.7l156.3,72.9l33.8-72.5L384.6-2101.7     z"/>
			<polygon class="st27" points="460.5,-1978 475.4,-1968.9 485.7,-1940.6 530.2,-2036 494.3,-2050.5    "/>
		</g>
		<path class="st10" d="M377.3-2136.1c17.1,0,33.4-3,48.2-8.5c2.1-0.8,3.4-2.7,3.3-4.9c-2.1-52.4-30.4-94-65-94    c-31.6,0-57.9,34.6-63.8,80.5c-0.2,1.9,0.6,3.8,2.2,4.9C323.2-2144.3,349.2-2136.1,377.3-2136.1z"/>
		<path class="st31" d="M329.2-2228.2c-12.5,12.1-22.2,30.7-27,52.7"/>
		<g>
			<path class="st33" d="M344.5-2108.3l8.2,94.1c0.5,5.8,2,11.5,4.5,16.8l50.4,108l72.5-33.8l-48.1-103.2l-9.9-113.5"/>
			<polygon class="st27" points="397.7,-1910.5 403.2,-1894 392.9,-1865.7 488.3,-1910.2 470.2,-1944.3    "/>
		</g>
		<path class="st38" d="M389.1-2105.3c6.2-19,20.8-35.4,40.6-44.6c5.4-2.5,7.5-9.2,4.3-14.3c-10.7-17.2-26.4-32.4-46.1-43.4"/>
		<circle class="st11" cx="390.3" cy="-2104.9" r="23.5"/>
		<circle class="st11" cx="252.1" cy="-2280.2" r="23.5"/>
		
			<ellipse transform="matrix(4.138369e-02 -0.9991 0.9991 4.138369e-02 2586.0491 -1780.0693)" class="st7" cx="365.4" cy="-2237.7" rx="3" ry="8.4"/>
		<path class="st31" d="M338.2-2146.6c0.9-32.3,8.1-61.5,19.6-83.5"/>
		<g>
			<circle class="st11" cx="370.7" cy="-2281.7" r="21.2"/>
			<path class="st4" d="M377.5-2306.8c-13.9-3.7-28.1,4.5-31.8,18.4l50.2,13.5C399.5-2288.8,391.3-2303.1,377.5-2306.8z"/>
			<path class="st7" d="M387.8-2269.2c1.5-2.1,2.7-4.4,3.4-7l-41-11c-0.1,0.3-0.1,0.5-0.2,0.8L387.8-2269.2z"/>
		</g>
		<g>
			
				<linearGradient id="SVGID_5_" gradientUnits="userSpaceOnUse" x1="135.6494" y1="-2367.689" x2="266.9041" y2="-2367.689" gradientTransform="matrix(0.9397 0.342 -0.342 0.9397 -786.421 -203.868)">
				<stop offset="0.25" style="stop-color:#FFFFFF;stop-opacity:0"/>
				<stop offset="1" style="stop-color:#4070F4;stop-opacity:0.5"/>
			</linearGradient>
			<polygon class="st39" points="137.7,-2346.3 266.9,-2317.4 281.5,-2357.6 164,-2418.5    "/>
			
				<rect x="262.1" y="-2316.1" transform="matrix(0.9397 0.342 -0.342 0.9397 -767.9097 -229.2076)" class="st40" width="7.8" height="48"/>
			
				<rect x="273.7" y="-2356.2" transform="matrix(0.9397 0.342 -0.342 0.9397 -781.5724 -237.0958)" class="st40" width="15.6" height="42.8"/>
			<path class="st33" d="M280.2-2354c-5.2,3.3-9.4,8.2-11.7,14.4c-2.3,6.2-2.2,12.7-0.3,18.6L280.2-2354z"/>
		</g>
		
			<ellipse transform="matrix(0.2588 -0.9659 0.9659 0.2588 2381.8838 -1447.5068)" class="st11" cx="247.7" cy="-2275.8" rx="25.5" ry="21.9"/>
		<path class="st31" d="M259.6-2298.1c6.4,4.1,10.3,11.8,10.2,20.4"/>
		<path class="st10" d="M374.7-2184.1c7,3.9,12.9,9.9,18.6,15.1c0.4,0.3,1,0.3,1.3,0l40.3-35.4c0.4-0.4,0.5-1.1,0-1.5    c-9.9-9.8-21.3-18.3-33.9-25.3c-13-7.3-29.5-2.6-36.7,10.4C357-2207.8,361.7-2191.3,374.7-2184.1z"/>
		<path class="st31" d="M385.4-2176.2c2.7,2.4,5.3,4.9,7.9,7.2c0.4,0.3,1,0.3,1.3,0l40.3-35.4"/>
	</g>
</g>
<g>
	<g>
		
			<linearGradient id="SVGID_6_" gradientUnits="userSpaceOnUse" x1="746.4088" y1="276.1353" x2="746.4088" y2="62.268" gradientTransform="matrix(0.9962 8.715574e-02 -8.715574e-02 0.9962 -171.6492 -87.2725)">
			<stop offset="4.262232e-07" style="stop-color:#4070F4;stop-opacity:0.5"/>
			<stop offset="0.75" style="stop-color:#FFFFFF;stop-opacity:0"/>
		</linearGradient>
		<polygon class="st41" points="695.6,51.1 437.4,28.5 453.4,244.6 642.3,261.1   "/>
		<g>
			<g>
				<circle class="st42" cx="549.7" cy="223.8" r="26.6"/>
				
					<rect x="542.5" y="196.3" transform="matrix(0.9659 0.2588 -0.2588 0.9659 76.2844 -133.7714)" class="st42" width="7.3" height="53.2"/>
				<circle class="st43" cx="542.6" cy="221.9" r="26.6"/>
				<circle class="st0" cx="542.6" cy="221.9" r="19.2"/>
				<path class="st22" d="M527.7,217.9c2.6-9.6,12-15.6,21.7-13.9c-0.6-0.2-1.2-0.4-1.7-0.6c-10.2-2.7-20.7,3.3-23.5,13.6      c-2.7,10.2,3.3,20.7,13.6,23.5c0.6,0.2,1.2,0.3,1.8,0.4C530.3,237.4,525.1,227.5,527.7,217.9z"/>
				<circle class="st44" cx="542.6" cy="221.9" r="19.2"/>
				<path class="st45" d="M540.4,226.9l-3.2-5.5c-0.3-0.6-0.1-1.3,0.4-1.7l5.5-3.2c0.6-0.3,1.3-0.1,1.7,0.4l3.2,5.5      c0.3,0.6,0.1,1.3-0.4,1.7l-5.5,3.2C541.5,227.6,540.7,227.4,540.4,226.9z"/>
			</g>
			<g>
				
					<rect x="450" y="250" transform="matrix(0.9962 8.715574e-02 -8.715574e-02 0.9962 26.9587 -43.6329)" class="st46" width="126.4" height="73.9"/>
				
					<rect x="576" y="258.2" transform="matrix(0.9962 8.715574e-02 -8.715574e-02 0.9962 28.038 -51.8311)" class="st43" width="63.2" height="73.9"/>
				<polygon class="st43" points="436.6,224.6 453.4,244.6 579.3,255.6 562.5,235.6     "/>
				<polygon class="st46" points="599.3,238.8 579.3,255.6 642.3,261.1 662.3,244.3     "/>
			</g>
			<g>
				<circle class="st42" cx="542.6" cy="122.4" r="15.1"/>
				
					<rect x="542.5" y="107.8" transform="matrix(-0.9659 -0.2588 0.2588 -0.9659 1038.802 382.6286)" class="st42" width="4.2" height="30.2"/>
				<circle class="st43" cx="546.6" cy="123.5" r="15.1"/>
				<circle class="st0" cx="546.6" cy="123.5" r="10.9"/>
				<path class="st22" d="M555.1,125.8c1.5-5.5-1.5-11.1-6.7-13c0.3,0.1,0.7,0.1,1,0.2c5.8,1.6,9.3,7.5,7.7,13.3s-7.5,9.3-13.3,7.7      c-0.3-0.1-0.7-0.2-1-0.3C548.3,134.6,553.6,131.2,555.1,125.8z"/>
				<circle class="st44" cx="546.6" cy="123.5" r="10.9"/>
				<path class="st45" d="M546.3,126.6l3.1-1.8c0.3-0.2,0.4-0.6,0.3-1l-1.8-3.1c-0.2-0.3-0.6-0.4-1-0.3l-3.1,1.8      c-0.3,0.2-0.4,0.6-0.3,1l1.8,3.1C545.5,126.6,546,126.8,546.3,126.6z"/>
			</g>
			<g>
				<circle class="st42" cx="616.5" cy="162.3" r="9.5"/>
				
					<rect x="613.9" y="153.2" transform="matrix(0.9659 -0.2588 0.2588 0.9659 -21.1343 164.7766)" class="st42" width="2.6" height="18.9"/>
				<circle class="st43" cx="614" cy="163" r="9.5"/>
				<circle class="st0" cx="614" cy="163" r="6.8"/>
				<path class="st22" d="M608.6,164.4c-0.9-3.4,0.9-6.9,4.2-8.2c-0.2,0-0.4,0.1-0.6,0.1c-3.6,1-5.8,4.7-4.8,8.4      c1,3.6,4.7,5.8,8.4,4.8c0.2-0.1,0.4-0.1,0.6-0.2C612.9,170,609.6,167.8,608.6,164.4z"/>
				<circle class="st44" cx="614" cy="163" r="6.8"/>
				<path class="st45" d="M614.2,164.9l-2-1.1c-0.2-0.1-0.3-0.4-0.2-0.6l1.1-2c0.1-0.2,0.4-0.3,0.6-0.2l2,1.1      c0.2,0.1,0.3,0.4,0.2,0.6l-1.1,2C614.6,165,614.4,165,614.2,164.9z"/>
			</g>
			<circle class="st47" cx="488.9" cy="162.1" r="9.9"/>
			<circle class="st48" cx="598.4" cy="83.1" r="6.2"/>
			<circle class="st47" cx="611.1" cy="211.5" r="3.7"/>
		</g>
	</g>
	<g>
		<polygon class="st10" points="162.5,595.8 192.6,595.8 227.5,560.9 197.4,560.9   "/>
		<polygon class="st4" points="415.7,96.8 392.2,96.8 364.9,69.4 388.4,69.4   "/>
	</g>
	<g>
		<g>
			<circle class="st42" cx="23.8" cy="379.8" r="17.8"/>
			
				<rect x="23.8" y="362.2" transform="matrix(-0.9962 -8.715574e-02 8.715574e-02 -0.9962 19.3696 760.7859)" class="st42" width="4.9" height="35.6"/>
			<circle class="st43" cx="28.7" cy="380.2" r="17.8"/>
			<circle class="st0" cx="28.7" cy="380.2" r="12.8"/>
			<path class="st22" d="M39.1,381.1c0.6-6.6-4-12.5-10.4-13.7c0.4,0,0.8,0,1.2,0c7.1,0.6,12.3,6.8,11.7,13.9     c-0.6,7.1-6.8,12.3-13.9,11.7c-0.4,0-0.8-0.1-1.2-0.2C32.9,392.8,38.5,387.7,39.1,381.1z"/>
			<circle class="st44" cx="28.7" cy="380.2" r="12.8"/>
			<path class="st45" d="M29,383.8l3.3-2.8c0.3-0.3,0.4-0.8,0.1-1.2l-2.8-3.3c-0.3-0.3-0.8-0.4-1.2-0.1l-3.3,2.8     c-0.3,0.3-0.4,0.8-0.1,1.2l2.8,3.3C28.1,384.1,28.7,384.1,29,383.8z"/>
		</g>
		<g>
			<circle class="st42" cx="98.8" cy="196.6" r="11.1"/>
			
				<rect x="95.7" y="185.6" transform="matrix(0.9962 -8.715574e-02 8.715574e-02 0.9962 -16.7724 9.2263)" class="st42" width="3.1" height="22.1"/>
			<circle class="st43" cx="95.7" cy="196.8" r="11.1"/>
			<circle class="st0" cx="95.7" cy="196.8" r="8"/>
			<path class="st22" d="M89.3,197.4c-0.4-4.1,2.5-7.8,6.5-8.5c-0.3,0-0.5,0-0.8,0c-4.4,0.4-7.6,4.3-7.3,8.7     c0.4,4.4,4.3,7.6,8.7,7.3c0.3,0,0.5-0.1,0.8-0.1C93.1,204.6,89.7,201.5,89.3,197.4z"/>
			<circle class="st44" cx="95.7" cy="196.8" r="8"/>
			<path class="st45" d="M95.6,199.1l-2-1.7c-0.2-0.2-0.2-0.5-0.1-0.7l1.7-2c0.2-0.2,0.5-0.2,0.7-0.1l2,1.7c0.2,0.2,0.2,0.5,0.1,0.7     l-1.7,2C96.1,199.2,95.8,199.3,95.6,199.1z"/>
		</g>
		<circle class="st48" cx="160" cy="461.4" r="10.1"/>
	</g>
	<g>
		<g>
			<path class="st44" d="M61.9,150.4v4.5c0,3.2-2.6,5.8-5.8,5.8H6.8c-3.2,0-5.8-2.6-5.8-5.8v-49.3c0-3.2,2.6-5.8,5.8-5.8h49.3     c3.2,0,5.8,2.6,5.8,5.8v16.1"/>
			<g>
				<path class="st44" d="M50.8,116.3h-9.7c-1.5,0-2.8,1.2-2.8,2.8c0,1.5,1.2,2.8,2.8,2.8h9.7c1.5,0,2.8-1.2,2.8-2.8      C53.6,117.6,52.4,116.3,50.8,116.3z"/>
				<path class="st44" d="M32.1,116.3h-6c-1.5,0-2.8,1.2-2.8,2.8c0,1.5,1.2,2.8,2.8,2.8h6c1.5,0,2.8-1.2,2.8-2.8      C34.9,117.6,33.6,116.3,32.1,116.3z"/>
				<path class="st44" d="M50.8,127.4H32c-1.5,0-2.8,1.2-2.8,2.8s1.2,2.8,2.8,2.8h18.8c1.5,0,2.8-1.2,2.8-2.8S52.4,127.4,50.8,127.4      z"/>
				<path class="st44" d="M67.1,127.4h-7.2c-1.5,0-2.8,1.2-2.8,2.8s1.2,2.8,2.8,2.8h7.2c1.5,0,2.8-1.2,2.8-2.8      S68.6,127.4,67.1,127.4z"/>
				<path class="st44" d="M37.2,138.5H12.1c-1.5,0-2.8,1.2-2.8,2.8s1.2,2.8,2.8,2.8h25.1c1.5,0,2.8-1.2,2.8-2.8      S38.7,138.5,37.2,138.5z"/>
				<path class="st49" d="M50.8,138.5h-4.6c-1.5,0-2.8,1.2-2.8,2.8s1.2,2.8,2.8,2.8h4.6c1.5,0,2.8-1.2,2.8-2.8      S52.4,138.5,50.8,138.5z"/>
				<path class="st44" d="M76.1,138.5H59.9c-1.5,0-2.8,1.2-2.8,2.8s1.2,2.8,2.8,2.8h16.3c1.5,0,2.8-1.2,2.8-2.8      S77.7,138.5,76.1,138.5z"/>
			</g>
			<path class="st44" d="M154.2,241.6h-117c-3.2,0-5.8-2.6-5.8-5.8v-63.6"/>
		</g>
		<g>
			<path class="st44" d="M168.3,337.5h37c3.2,0,5.8,2.6,5.8,5.8L211,493c0,3.2,2.6,5.8,5.8,5.8h64.8"/>
			<path class="st44" d="M156.6,341.7v14.4c0,3.2-2.6,5.8-5.8,5.8H90.1c-3.2,0-5.8-2.6-5.8-5.8v-37.3c0-3.2,2.6-5.8,5.8-5.8h60.8     c3.2,0,5.8,2.6,5.8,5.8"/>
			<path class="st49" d="M108.8,327.7c0,1.4,1.1,2.5,2.5,2.5h5.4c1.4,0,2.5-1.1,2.5-2.5c0-1.4-1.1-2.5-2.5-2.5h-5.4     C109.9,325.2,108.8,326.3,108.8,327.7z"/>
			<path class="st44" d="M122.5,327.7c0,1.4,1.1,2.5,2.5,2.5h40.8c1.4,0,2.5-1.1,2.5-2.5c0-1.4-1.1-2.5-2.5-2.5H125     C123.6,325.2,122.5,326.3,122.5,327.7z"/>
			<path class="st44" d="M98.5,337.5c0,1.4,1.1,2.5,2.5,2.5h13c1.4,0,2.5-1.1,2.5-2.5c0-1.4-1.1-2.5-2.5-2.5h-13     C99.6,335.1,98.5,336.2,98.5,337.5z"/>
			<path class="st44" d="M119.8,337.5c0,1.4,1.1,2.5,2.5,2.5h15.8c1.4,0,2.5-1.1,2.5-2.5c0-1.4-1.1-2.5-2.5-2.5h-15.8     C120.9,335.1,119.8,336.2,119.8,337.5z"/>
			<path class="st49" d="M144,337.5c0,1.4,1.1,2.5,2.5,2.5h2.8c1.4,0,2.5-1.1,2.5-2.5c0-1.4-1.1-2.5-2.5-2.5h-2.8     C145.1,335.1,144,336.2,144,337.5z"/>
			<path class="st44" d="M98.5,347.3c0,1.4,1.1,2.5,2.5,2.5H130c1.4,0,2.5-1.1,2.5-2.5c0-1.4-1.1-2.5-2.5-2.5h-29.1     C99.6,344.9,98.5,346,98.5,347.3z"/>
			<path class="st44" d="M89.2,347.3c0,1.4,1.1,2.5,2.5,2.5h0.9c1.4,0,2.5-1.1,2.5-2.5c0-1.4-1.1-2.5-2.5-2.5h-0.9     C90.3,344.9,89.2,346,89.2,347.3z"/>
			<path class="st44" d="M136,347.3c0,1.4,1.1,2.5,2.5,2.5h10.8c1.4,0,2.5-1.1,2.5-2.5c0-1.4-1.1-2.5-2.5-2.5h-10.8     C137.1,344.9,136,346,136,347.3z"/>
		</g>
		<g>
			<path class="st44" d="M440.6,379.4h122.5c3.2,0,5.8,2.6,5.8,5.8v101.9"/>
			<path class="st44" d="M613.8,521.2v-16.7c0-3.2-2.6-5.8-5.8-5.8h-78.2c-3.2,0-5.8,2.6-5.8,5.8v39.6c0,3.2,2.6,5.8,5.8,5.8H608     c3.2,0,5.8-2.6,5.8-5.8"/>
			<path class="st44" d="M566,538.5h-27.8c-1.6,0-2.8-1.3-2.8-2.8s1.3-2.8,2.8-2.8H566c1.6,0,2.8,1.3,2.8,2.8S567.6,538.5,566,538.5     z"/>
			<path class="st44" d="M608,538.5h-16.2c-1.6,0-2.8-1.3-2.8-2.8s1.3-2.8,2.8-2.8H608c1.6,0,2.8,1.3,2.8,2.8S609.6,538.5,608,538.5     z"/>
			<path class="st44" d="M619.5,538.5h-2.3c-1.6,0-2.8-1.3-2.8-2.8s1.3-2.8,2.8-2.8h2.3c1.6,0,2.8,1.3,2.8,2.8     S621.1,538.5,619.5,538.5z"/>
			<path class="st49" d="M582.7,538.5h-7.5c-1.6,0-2.8-1.3-2.8-2.8s1.3-2.8,2.8-2.8h7.5c1.6,0,2.8,1.3,2.8,2.8     S584.2,538.5,582.7,538.5z"/>
			<path class="st44" d="M599.5,527.2h-49.7c-1.6,0-2.8-1.3-2.8-2.8s1.3-2.8,2.8-2.8h49.7c1.6,0,2.8,1.3,2.8,2.8     S601.1,527.2,599.5,527.2z"/>
			<path class="st44" d="M552,515.8h-13.8c-1.6,0-2.8-1.3-2.8-2.8c0-1.6,1.3-2.8,2.8-2.8H552c1.6,0,2.8,1.3,2.8,2.8     C554.9,514.5,553.6,515.8,552,515.8z"/>
			<path class="st44" d="M587.6,515.8h-26.4c-1.6,0-2.8-1.3-2.8-2.8c0-1.6,1.3-2.8,2.8-2.8h26.4c1.6,0,2.8,1.3,2.8,2.8     C590.4,514.5,589.1,515.8,587.6,515.8z"/>
		</g>
		<g>
			<path class="st44" d="M86.7,513.2c0,3.2-2.6,5.8-5.8,5.8H40.7c-3.2,0-5.8-2.6-5.8-5.8v-40.2c0-3.2,2.6-5.8,5.8-5.8h40.2     c3.2,0,5.8,2.6,5.8,5.8v17.1"/>
			<path class="st44" d="M199.4,429.7H66.6c-3.2,0-5.8,2.6-5.8,5.8v20"/>
			<path class="st44" d="M40.6,481.5c0,1.6,1.3,2.9,2.9,2.9H56c1.6,0,2.9-1.3,2.9-2.9c0-1.6-1.3-2.9-2.9-2.9H43.5     C41.9,478.6,40.6,479.9,40.6,481.5z"/>
			<path class="st49" d="M62.3,481.5c0,1.6,1.3,2.9,2.9,2.9h2.7c1.6,0,2.9-1.3,2.9-2.9c0-1.6-1.3-2.9-2.9-2.9h-2.7     C63.6,478.6,62.3,479.9,62.3,481.5z"/>
			<path class="st44" d="M40.6,493c0,1.6,1.3,2.9,2.9,2.9h7.2c1.6,0,2.9-1.3,2.9-2.9s-1.3-2.9-2.9-2.9h-7.2     C41.9,490.2,40.6,491.5,40.6,493z"/>
			<path class="st44" d="M57,493c0,1.6,1.3,2.9,2.9,2.9H78c1.6,0,2.9-1.3,2.9-2.9s-1.3-2.9-2.9-2.9H59.9C58.3,490.2,57,491.5,57,493     z"/>
			<path class="st44" d="M86.7,507.4h3c1.6,0,2.9-1.3,2.9-2.9c0-1.6-1.3-2.9-2.9-2.9H68c-1.6,0-2.9,1.3-2.9,2.9     c0,1.6,1.3,2.9,2.9,2.9H86.7"/>
			<path class="st44" d="M40.6,504.6c0,1.6,1.3,2.9,2.9,2.9h15.3c1.6,0,2.9-1.3,2.9-2.9c0-1.6-1.3-2.9-2.9-2.9H43.5     C41.9,501.7,40.6,503,40.6,504.6z"/>
		</g>
	</g>
	<g>
		<path class="st43" d="M342,242.3c-0.8-14.4-13.2-25.4-27.6-24.6c-10.4,0.6-21.2,0.9-31.9,0.9c-14.9,0-29.6-0.6-43.9-1.7    c-7.7-11.5-13.8-27.8-17.4-46.1c1-2.9,1.6-5.9,1.6-9.1c0-15.1-12.2-27.9-27.3-27.3c-25,0.9-28.8,21.2-27.9,31.6    c2.7,32.5,14.5,61.7,29.3,82.5c8.4,11.8,21.5,19.3,36,20.4c16.2,1.3,32.9,2,49.7,2c11.7,0,23.4-0.3,34.8-1    C331.8,269.1,342.8,256.7,342,242.3z"/>
		<path class="st11" d="M389.9,321.2c-15.6,5-32.4,7.7-49.9,7.7c-29.3,0-56.5-7.6-79.4-20.7l-0.2,2.5c24.3,21.7,59.8,35.4,99.2,35.4    c11.7,0,23.1-1.2,33.9-3.5l-1.6-17.9L389.9,321.2z"/>
		<path class="st10" d="M302.7,225.1c-0.2-4.9-1.5-9.7-3.5-14.1c-6.7,1.2-13.8,2-21,2.4c-8.1,0.4-16,0.2-23.6-0.4    c-0.6-0.1-1.2,0.4-1.2,1l-8.8,65c-0.1,0.7,0.5,1.3,1.2,1.1C279.5,273.1,303.9,250.6,302.7,225.1z"/>
		<polygon class="st11" points="310.1,453.5 302,361.3 297,447.4   "/>
		<g>
			<path class="st44" d="M348.6,368.9l6.1-70.1l-92.6-8.1l-9,102.5c-1.7,19.5,8.9,37.9,26.6,46.1L461.4,524l39.3-84.2L348.6,368.9z"/>
			<polygon class="st49" points="436.8,512.5 454,523.2 466,556 517.7,445.2 476,428.3    "/>
		</g>
		<path class="st10" d="M340.1,328.9c19.8,0,38.8-3.5,56-9.8c2.4-0.9,3.9-3.2,3.8-5.7c-2.4-60.9-35.3-109.1-75.4-109.1    c-36.7,0-67.2,40.2-74.1,93.5c-0.3,2.2,0.7,4.4,2.6,5.7C277.3,319.4,307.4,328.9,340.1,328.9z"/>
		<path class="st7" d="M399.9,313.3c-1.1-27.8-8.6-53-20.2-72.2l-30.2,41.2l2.5,46.1c15.5-1.1,30.3-4.4,44-9.4    C398.5,318.2,400,315.9,399.9,313.3z"/>
		<path class="st44" d="M284.3,222c-14.6,14.1-25.8,35.6-31.4,61.1"/>
		<g>
			<path class="st46" d="M302,361.3l9.6,109.3c0.6,6.7,2.4,13.3,5.2,19.5l58.5,125.4l84.2-39.3l-55.9-119.9l-11.5-131.8"/>
			<polygon class="st49" points="363.8,590.9 370.2,610.1 358.2,643 469.1,591.3 448,551.6    "/>
		</g>
		<path class="st43" d="M428.1,282.5c-15.1-24.3-36.9-44.8-63-59.4c-12.6-7-28.5-2.6-35.6,10c-7,12.6-2.6,28.5,10,35.6    c13.7,7.7,25.6,17.5,35.2,29c-21.6,14.1-37.9,34.9-45.8,58.9c-1.6,4.8-1.6,9.7-0.6,14.3c2.8,12.3,13.6,21.6,26.7,21.6    c15.1,0,28.1-11.3,27.3-28.5c6.2-11.7,16.6-21.3,29.4-27.3c9.8-4.5,17.2-13.1,20.3-23.5C435.3,302.9,433.8,291.7,428.1,282.5z"/>
		
			<ellipse transform="matrix(4.138369e-02 -0.9991 0.9991 4.138369e-02 102.0027 528.1739)" class="st7" cx="326.3" cy="210.9" rx="3.5" ry="9.8"/>
		<g>
			<circle class="st11" cx="332.5" cy="159.9" r="24.6"/>
			<path class="st0" d="M338.9,136.1c-3.8-1-7.7-1.1-11.4-0.3c0.5,0.1,0.9,0.2,1.4,0.3c13.1,3.5,20.9,17,17.4,30.2     c-2.5,9.3-10,15.9-18.8,17.7c12.7,2.6,25.4-5.1,28.8-17.7C359.8,153.1,352,139.6,338.9,136.1z"/>
			<path class="st4" d="M340.3,130.7c-16.1-4.3-32.7,5.2-37,21.3l58.3,15.6C366,151.6,356.4,135,340.3,130.7z"/>
			<path class="st44" d="M333.3,129.7c-6.3,2.2-12.5,9-16.5,18.2"/>
		</g>
		<g>
			
				<linearGradient id="SVGID_7_" gradientUnits="userSpaceOnUse" x1="895.882" y1="-63.4245" x2="1048.3136" y2="-63.4245" gradientTransform="matrix(0.9397 0.342 -0.342 0.9397 -786.421 -203.868)">
				<stop offset="0.25" style="stop-color:#FFFFFF;stop-opacity:0"/>
				<stop offset="1" style="stop-color:#4070F4;stop-opacity:0.5"/>
			</linearGradient>
			<polygon class="st50" points="61.9,84.9 211.9,118.4 228.9,71.7 92.4,1    "/>
			
				<rect x="206.3" y="119.9" transform="matrix(0.9397 0.342 -0.342 0.9397 63.252 -63.2056)" class="st51" width="9.1" height="55.8"/>
			<path class="st11" d="M197.3,138.1c-6.2-1.7-12.6-0.5-18.1,2.8l25.9,47.8c4.2-3.9,7.4-9.2,9.1-15.4     C218.4,157.5,210.8,141.8,197.3,138.1z"/>
			
				<rect x="219.8" y="73.3" transform="matrix(0.9397 0.342 -0.342 0.9397 47.3848 -72.3665)" class="st51" width="18.2" height="49.7"/>
			<path class="st46" d="M227.3,75.9c-6,3.8-10.9,9.5-13.6,16.8s-2.6,14.8-0.4,21.6L227.3,75.9z"/>
		</g>
		<path class="st44" d="M203.5,140.9c7.4,4.7,11.9,13.7,11.9,23.7"/>
		<path class="st10" d="M337.1,273.3c8.1,4.5,15,11.4,21.6,17.5c0.4,0.4,1.1,0.4,1.6,0l46.8-41.1c0.5-0.4,0.5-1.2,0.1-1.7    c-11.6-11.4-24.8-21.3-39.3-29.4c-15.1-8.5-34.2-3.1-42.7,12C316.6,245.7,321.9,264.8,337.1,273.3z"/>
		<path class="st44" d="M349.5,282.4c3.2,2.8,6.2,5.7,9.1,8.4c0.4,0.4,1.1,0.4,1.6,0l46.8-41.1"/>
	</g>
</g>
</svg>